<?xml version="1.0" standalone="no"?>
<!DOCTYPE svg PUBLIC "-//W3C//DTD SVG 1.1//EN" "http://www.w3.org/Graphics/SVG/1.1/DTD/svg11.dtd" >
<svg xmlns="http://www.w3.org/2000/svg">
<metadata></metadata>
<defs>
<font id="abcsansbold" horiz-adv-x="1456" >
<font-face units-per-em="2048" ascent="1536" descent="-512" />
<missing-glyph horiz-adv-x="428" />
<glyph unicode="&#xfb01;" horiz-adv-x="1189" d="M35 858v205h168v145q0 168 88.5 262.5t263.5 94.5q50 0 101.5 -9t74.5 -18l-39 -182q-1 0 -27.5 3t-46.5 3q-86 0 -122.5 -43t-36.5 -152v-104h600v-1063h-254v858h-346v-858h-256v858h-168zM782 1364q0 55 40.5 91t111.5 36q62 0 105.5 -35.5t43.5 -93.5q0 -63 -43 -98 t-106 -35q-71 0 -111.5 38.5t-40.5 96.5z" />
<glyph unicode="&#xfb02;" horiz-adv-x="1314" d="M27 858v205h168v145q0 166 88 261.5t264 95.5q142 0 246 -74v49l254 25v-1215q0 -82 31 -113.5t93 -31.5q22 0 48 8.5t41 17.5t18 13l49 -183q-118 -73 -233 -73q-152 0 -226.5 92t-74.5 246v989q-87 47 -185 47q-80 0 -118.5 -42.5t-38.5 -152.5v-104h217l-33 -205h-184 v-858h-256v858h-168z" />
<glyph unicode="&#xfb03;" horiz-adv-x="1798" d="M27 858v205h168v145q0 169 89 263t265 94q111 0 203 -37l-33 -178q-42 12 -109 12q-86 0 -122.5 -43t-36.5 -152v-104h358v145q0 168 89.5 262.5t264.5 94.5q50 0 101.5 -9t74.5 -18l-39 -182q-1 0 -27.5 3t-47.5 3q-86 0 -123 -43.5t-37 -151.5v-104h602v-1063h-254v858 h-348v-858h-256v858h-358v-858h-256v858h-168zM1391 1364q0 55 39.5 91t109.5 36q64 0 108 -35.5t44 -93.5q0 -63 -43.5 -98t-108.5 -35q-70 0 -109.5 38.5t-39.5 96.5z" />
<glyph unicode="&#xfb04;" horiz-adv-x="1957" d="M27 858v205h168v145q0 169 89 263t265 94q111 0 203 -37l-33 -178q-42 12 -109 12q-86 0 -122.5 -43t-36.5 -152v-104h385v145q0 166 88.5 261.5t265.5 95.5q140 0 244 -74v49l254 25v-1215q0 -81 32.5 -113t94.5 -32q32 0 64.5 15t41.5 24l47 -183q-118 -73 -231 -73 q-153 0 -228 92t-75 246v989q-84 47 -185 47q-79 0 -118 -42.5t-39 -152.5v-104h219l-33 -205h-186v-858h-256v858h-385v-858h-256v858h-168z" />
<glyph horiz-adv-x="0" />
<glyph horiz-adv-x="682" />
<glyph horiz-adv-x="0" />
<glyph horiz-adv-x="0" />
<glyph unicode="&#xd;" horiz-adv-x="512" />
<glyph unicode=" "  horiz-adv-x="428" />
<glyph unicode="&#x09;" horiz-adv-x="428" />
<glyph unicode="&#xa0;" horiz-adv-x="428" />
<glyph unicode="!" horiz-adv-x="555" d="M137 141q0 57 42 99.5t100 42.5q61 0 104 -42t43 -100q0 -60 -43 -103.5t-104 -43.5q-58 0 -100 43.5t-42 103.5zM150 1434h264l-31 -955h-205z" />
<glyph unicode="&#x22;" horiz-adv-x="589" d="M72 1536h164l-21 -545h-125zM354 1536h164l-20 -545h-125z" />
<glyph unicode="#" horiz-adv-x="1277" d="M70 307v133h245l64 303h-242v140h273l57 274h151l-57 -274h277l57 274h147l-57 -274h225v-140h-256l-63 -303h252v-133h-281l-65 -307h-148l64 307h-277l-63 -307h-152l66 307h-217zM465 440h276l66 303h-277z" />
<glyph unicode="$" horiz-adv-x="1120" d="M96 348l240 82v-22t9.5 -50.5t27 -65t58 -54.5t97.5 -31v422q-162 59 -234 104q-175 115 -177 318q0 77 24 143.5t72.5 121t129 88t185.5 38.5v121h99v-123q80 -6 145.5 -28.5t106 -54.5t71 -69t45 -72.5t22.5 -65t9 -47.5l2 -18l-231 -77v21t-8 48t-23.5 64t-51.5 57.5 t-87 38.5v-397q42 -15 63 -23t62 -25t63 -30t56.5 -35t54 -43t43 -51.5t36 -63t21 -74.5t8.5 -89q0 -103 -43.5 -190t-137.5 -148t-226 -74v-156h-99v152q-68 1 -126 14t-99 34t-74.5 47.5t-54.5 56t-36.5 59t-23 56t-12 47t-5.5 32.5zM360 1044q1 -32 13.5 -57t38.5 -44.5 t51 -32.5t65 -29v358q-85 -11 -128 -60.5t-40 -134.5zM627 213q82 11 126.5 63.5t41.5 143.5q-1 63 -44 98.5t-124 67.5v-373z" />
<glyph unicode="%" horiz-adv-x="1734" d="M82 1069q0 94 26.5 165.5t72.5 114t104 64t125 21.5q66 0 123 -21t102.5 -63.5t71.5 -113.5t26 -163q0 -182 -81 -279.5t-242 -97.5q-159 0 -243.5 97t-84.5 276zM256 1071q0 -233 156 -233q81 0 116 60.5t35 172.5q0 114 -41 167.5t-110 53.5q-71 0 -113.5 -55 t-42.5 -166zM442 0l670 1434h184l-667 -1434h-187zM1020 373q0 182 93 273t235 91q66 0 123 -21t102.5 -63t71.5 -113t26 -163q0 -182 -81 -279.5t-242 -97.5q-159 0 -243.5 97t-84.5 276zM1194 375q0 -234 156 -234q151 0 151 234q0 114 -41 167.5t-110 53.5 q-71 0 -113.5 -55t-42.5 -166z" />
<glyph unicode="&#x26;" horiz-adv-x="1300" d="M78 393q8 247 276 379q-2 3 -12 14.5t-18 22t-11 14.5q-96 124 -98 273q-1 64 21 123t67.5 111t128.5 83.5t193 30.5q159 -2 263 -85t101 -226q-1 -75 -28 -138.5t-74 -110.5t-95 -79t-110 -62l270 -292q28 56 42.5 122.5t15.5 104.5v39l225 -76q0 -8 -1.5 -21.5 t-9.5 -54.5t-20 -81.5t-35.5 -95t-54.5 -101.5l143 -150l-161 -162l-133 142q-156 -129 -388 -129q-112 0 -207.5 32.5t-159 88t-98 129t-32.5 155.5zM328 422q0 -105 78 -169t202 -58q128 0 213 71l-344 375q-149 -95 -149 -219zM436 1069q6 -47 24.5 -80.5t63.5 -81.5 q3 -6 22 -26t25 -25q107 55 152.5 105.5t48.5 115.5q4 72 -38 114.5t-120 43.5q-87 3 -135.5 -43.5t-42.5 -122.5z" />
<glyph unicode="'" horiz-adv-x="313" d="M76 1536h164l-21 -545h-125z" />
<glyph unicode="(" horiz-adv-x="772" d="M115 541q0 323 117.5 573t355.5 451l104 -103q-88 -80 -155.5 -168t-122.5 -200.5t-84 -252t-29 -300.5q0 -598 391 -924l-104 -109q-226 166 -349.5 435t-123.5 598z" />
<glyph unicode=")" horiz-adv-x="772" d="M20 -383q392 327 392 924q0 161 -29 300.5t-84 251.5t-123 200.5t-156 168.5l105 103q238 -201 355.5 -451t117.5 -573q0 -329 -123.5 -598t-349.5 -435z" />
<glyph unicode="*" horiz-adv-x="1189" d="M115 993l51 156l366 -145l-18 378h176l-20 -383l362 152l58 -170l-381 -96l241 -305l-141 -103l-209 342l-211 -338l-145 101l241 309z" />
<glyph unicode="+" horiz-adv-x="1128" d="M35 557v207h424v442h211v-442h422v-207h-422v-434h-211v434h-424z" />
<glyph unicode="," horiz-adv-x="489" d="M72 -119q71 0 118.5 33t47.5 80q0 7 -6 16t-12 14l-7 5q-67 -4 -103.5 35t-31.5 96q3 56 41.5 91.5t101.5 35.5q101 0 148 -68.5t39 -173.5q-6 -71 -35 -124.5t-75.5 -85.5t-103 -47.5t-122.5 -16.5v110z" />
<glyph unicode="-" horiz-adv-x="544" d="M16 446v207h508v-207h-508z" />
<glyph unicode="." horiz-adv-x="425" d="M70 147q0 57 41.5 99.5t99.5 42.5q61 0 104 -42t43 -100q0 -60 -43 -103.5t-104 -43.5q-58 0 -99.5 43.5t-41.5 103.5z" />
<glyph unicode="/" horiz-adv-x="880" d="M27 -147l622 1640h219l-620 -1640h-221z" />
<glyph unicode="0" horiz-adv-x="1304" d="M111 745q0 150 29.5 272t80 205t121 139t149.5 81.5t168 25.5q88 0 166.5 -25t148 -81t119 -138.5t78.5 -205t29 -273.5q0 -363 -136 -560t-405 -197q-264 0 -406 197.5t-142 559.5zM367 748q0 -287 72 -415t220 -128q147 0 217 127.5t70 415.5q0 109 -15 196 t-41.5 144.5t-63.5 95.5t-78 54.5t-89 16.5q-62 0 -113 -28t-92 -86t-64 -158t-23 -235z" />
<glyph unicode="1" horiz-adv-x="796" d="M106 1221v213h478v-1434h-256v1221h-222z" />
<glyph unicode="2" horiz-adv-x="1185" d="M150 1051q4 56 24.5 111t61 107.5t96 92t135.5 63t174 21.5q194 -5 314.5 -108t121.5 -275q0 -75 -22.5 -140.5t-47.5 -107.5t-84 -92.5t-90.5 -72.5t-107.5 -71q-8 -5 -12 -8q-174 -111 -236.5 -185t-58.5 -175h659l-35 -211h-884q-10 61 -7.5 118.5t9 106.5t24.5 96 t37.5 86t49.5 77.5t60.5 70t69 63.5t76 58.5t82.5 54.5q53 33 79.5 51t69 52t63.5 61.5t37.5 68t16.5 83.5q0 184 -211 184q-46 -1 -83.5 -15t-60 -35.5t-39 -47.5t-23.5 -51.5t-11 -47t-4 -34.5v-13z" />
<glyph unicode="3" horiz-adv-x="1163" d="M98 385l248 59v-13.5t4 -33.5t11.5 -47.5t25 -50t41.5 -47.5t64 -33.5t90 -13.5q107 0 173 60.5t66 166.5q0 54 -19.5 95.5t-50 64.5t-68 38.5t-75 19.5t-68 5.5t-50.5 -0.5l-19 -2v174q7 -1 18 -1.5t44 0.5t62.5 6t66 20t62.5 37.5t44 62.5t18 92q0 92 -52.5 139.5 t-151.5 45.5q-48 0 -85.5 -14t-59.5 -36t-38 -48.5t-22 -52.5t-9.5 -48t-3.5 -36l1 -13l-246 66q4 56 23.5 111t59 108.5t94 93.5t135 64t175.5 22q89 -2 164.5 -25.5t134.5 -67t94 -114t37 -160.5q2 -80 -21 -144t-62.5 -102t-83.5 -59.5t-89 -25.5q38 -4 74 -14.5 t77.5 -35.5t72 -61t51 -95.5t20.5 -135.5q-1 -122 -66 -218t-170 -147t-231 -53q-102 -2 -186.5 21.5t-141.5 63.5t-97.5 93t-60.5 108t-24 111z" />
<glyph unicode="4" horiz-adv-x="1153" d="M47 358v244l619 834h276v-856h182l-14 -222h-168v-358h-252v358h-643zM279 580h407v557z" />
<glyph unicode="5" horiz-adv-x="1146" d="M84 379l246 63v-13.5t3.5 -33.5t11 -47.5t25 -50t42 -47.5t65.5 -33.5t92 -13.5q118 0 182 74.5t64 207.5q0 120 -60.5 190t-162.5 73q-48 2 -90.5 -10.5t-69.5 -32.5t-42.5 -36.5t-22.5 -29.5l-236 37l84 758h793l-31 -213h-543l-45 -383q25 35 87 66t159 32 q194 3 315.5 -117t120.5 -334q-2 -99 -32.5 -186t-88 -156.5t-149 -111t-205.5 -43.5q-124 -2 -223 33t-158.5 93.5t-92 126t-38.5 138.5z" />
<glyph unicode="6" horiz-adv-x="1230" d="M115 690q0 126 13.5 229t50.5 203.5t96.5 169t158.5 110.5t230 42q84 0 155 -22t118 -56t82.5 -79.5t54 -88t26.5 -84.5l-217 -74q-1 16 -4 32.5t-16 49t-33.5 56.5t-62 42.5t-95.5 18.5q-295 0 -295 -459q40 64 120 110.5t187 47.5q207 0 325.5 -119t118.5 -346 q0 -222 -141 -355.5t-373 -129.5q-117 2 -205.5 39t-156.5 116.5t-103 216.5t-34 330zM371 475q0 -137 69 -217t187 -80q114 0 180.5 78t66.5 219q0 154 -63 222.5t-180 68.5q-104 0 -182 -78t-78 -213z" />
<glyph unicode="7" horiz-adv-x="1060" d="M104 1221v213h807l90 -156l-548 -1278h-265l535 1221h-619z" />
<glyph unicode="8" horiz-adv-x="1208" d="M104 418q6 120 81 213t169 133q-203 93 -196 311q2 75 30.5 137.5t75 105t107.5 71.5t126.5 42t133.5 13q67 0 129.5 -12.5t119 -40t98.5 -67.5t66.5 -98t24.5 -128q0 -119 -55.5 -203.5t-149.5 -124.5q269 -91 269 -338q0 -139 -73.5 -242t-190 -152.5t-257.5 -49.5 q-238 0 -378 111t-130 319zM360 416q0 -238 256 -238q115 -1 188 69.5t73 176.5q0 35 -13 64.5t-42 53.5t-56 41t-77.5 35t-81 27.5t-89.5 26.5q-77 -55 -117.5 -114.5t-40.5 -141.5zM408 1063q4 -82 70 -127t218 -82q118 84 125 213q6 88 -44.5 142.5t-158.5 54.5 q-94 0 -153.5 -54t-56.5 -147z" />
<glyph unicode="9" horiz-adv-x="1236" d="M123 952q0 222 141 356t373 130q93 -2 167.5 -24.5t137.5 -74t105 -131t65.5 -199t22.5 -274.5q0 -88 -6.5 -164.5t-23.5 -154.5t-44 -141t-69.5 -119t-98.5 -93.5t-133.5 -59t-171.5 -21.5q-84 0 -156.5 22t-121.5 56t-86 78.5t-57 87.5t-28 85l217 74q1 -13 5 -32 t19 -50t38 -55.5t65.5 -43t96.5 -18.5q294 0 294 459q-40 -63 -121 -110t-186 -48q-207 0 -325.5 119t-118.5 346zM377 950q0 -291 244 -291q104 0 182 78t78 213q0 137 -69 217t-187 80q-114 0 -181 -78t-67 -219z" />
<glyph unicode=":" horiz-adv-x="423" d="M70 147q0 57 41.5 99.5t99.5 42.5q61 0 104 -42t43 -100q0 -60 -43 -103.5t-104 -43.5q-58 0 -99.5 43.5t-41.5 103.5zM70 866q0 58 41.5 101t99.5 43q61 0 104 -43t43 -101q0 -60 -43 -103.5t-104 -43.5q-58 0 -99.5 43.5t-41.5 103.5z" />
<glyph unicode=";" horiz-adv-x="432" d="M53 -119q71 0 118.5 33t47.5 80q0 7 -6 16t-12 14l-6 5q-67 -4 -104 35t-32 96q3 55 42 91t102 36q101 0 147.5 -68.5t38.5 -173.5q-6 -71 -35 -124.5t-75.5 -85.5t-103 -47.5t-122.5 -16.5v110zM76 866q0 58 41.5 101t99.5 43q61 0 104.5 -43t43.5 -101 q0 -60 -43.5 -103.5t-104.5 -43.5q-58 0 -99.5 43.5t-41.5 103.5z" />
<glyph unicode="&#x3c;" horiz-adv-x="1067" d="M72 588v168l929 409v-217l-690 -274l690 -283v-213z" />
<glyph unicode="=" horiz-adv-x="1099" d="M76 289v205h948v-205h-948zM76 764v205h948v-205h-948z" />
<glyph unicode="&#x3e;" horiz-adv-x="1077" d="M76 178v213l688 283l-688 274v217l930 -409v-168z" />
<glyph unicode="?" horiz-adv-x="1040" d="M72 1079q1 8 3 21t13.5 50.5t29.5 72t54 76t82.5 72t120 51t162.5 20.5q210 0 328 -112t118 -296q0 -105 -43 -196.5t-130.5 -153.5t-203.5 -72v-145h-227v276q60 0 76 2q80 5 139.5 32t90.5 67.5t45.5 84.5t14.5 91q0 102 -57 156.5t-160 54.5q-49 0 -89 -13.5 t-64.5 -35.5t-43 -48t-27 -52t-13.5 -48t-5 -36l-1 -13zM344 147q0 57 41.5 99.5t99.5 42.5q61 0 104.5 -42.5t43.5 -99.5q0 -60 -43.5 -103.5t-104.5 -43.5q-58 0 -99.5 43.5t-41.5 103.5z" />
<glyph unicode="@" horiz-adv-x="1957" d="M100 444q-1 180 49 329.5t136.5 252t204 174t250.5 105t278 34.5q177 2 331 -49.5t268.5 -146.5t179 -240t61.5 -321q-2 -142 -38 -254t-96 -181t-133 -107.5t-157 -47.5q-120 -11 -201 41t-88 162q-35 -88 -110 -144.5t-169 -56.5q-172 -8 -278 120t-88 355 q20 228 155.5 359.5t313.5 125.5q197 -9 258 -172q3 13 15.5 51.5t23.5 70.5l12 32h143q-84 -592 -90 -633q-4 -40 -2 -73.5t28.5 -55.5t76.5 -22q44 0 84 22.5t76 70t59 135t26 204.5q2 95 -20 180t-72.5 161t-126 130.5t-186.5 86.5t-248 32q-183 0 -324.5 -54 t-230.5 -152t-134.5 -229t-45.5 -290q-1 -151 42.5 -274t127 -211.5t213.5 -136t295 -44.5q77 1 148 13t117.5 28t82 32t51.5 27l16 11l74 -127q-7 -5 -20 -14.5t-59 -33t-98 -42.5t-135.5 -36t-172.5 -20q-135 -4 -259.5 22.5t-237 90t-195.5 158.5t-132 237t-49 315z M700 483q-17 -159 41.5 -243.5t176.5 -75.5q86 3 156.5 65t82.5 144l29 219q12 84 -42 142t-147 61q-109 5 -194 -73.5t-103 -238.5z" />
<glyph unicode="A" horiz-adv-x="1431" d="M55 0l504 1434h315l504 -1434h-270l-117 346h-551l-116 -346h-269zM512 565h406l-193 541h-16z" />
<glyph unicode="B" horiz-adv-x="1277" d="M145 0v1434h564q454 0 454 -355q0 -116 -54 -203t-140 -118q103 -30 168 -117.5t65 -226.5q0 -192 -123 -303t-364 -111h-570zM401 219h316q107 0 166.5 51.5t62.5 153.5v9q0 99 -64 149q-67 52 -186 53h-295v-416zM401 856h293q100 0 156.5 49t56.5 144q0 172 -202 172 h-304v-365z" />
<glyph unicode="C" horiz-adv-x="1406" d="M102 715q0 144 33.5 264t91.5 204t138.5 142.5t174 87.5t197.5 31h23q202 0 353 -100q159 -106 216 -281q-8 -5 -110.5 -53t-104.5 -49q-32 118 -126 193t-228 75q-85 0 -156.5 -30t-127 -89.5t-87 -158t-31.5 -226.5q0 -106 24.5 -197.5t72 -163.5t124.5 -113.5 t175 -41.5q122 0 217 66t139 184l219 -101q-75 -172 -236 -274q-151 -96 -343 -96h-27q-295 9 -458 206.5t-163 520.5z" />
<glyph unicode="D" horiz-adv-x="1411" d="M145 0v1434h488q148 0 269 -39.5t213 -119.5t143 -211.5t51 -305.5q0 -191 -53.5 -338.5t-149.5 -238t-222 -136t-278 -45.5h-461zM401 219h205q118 0 205.5 40t139 112.5t76 165.5t24.5 208q0 240 -109 358t-317 118h-224v-1002z" />
<glyph unicode="E" horiz-adv-x="1103" d="M145 0v1434h873l-31 -213h-588v-371h568v-219h-568v-412h623v-219h-877z" />
<glyph unicode="F" horiz-adv-x="1095" d="M145 0v1434h881l-29 -213h-598v-402h574l-4 -219h-570v-600h-254z" />
<glyph unicode="G" horiz-adv-x="1441" d="M102 717q0 181 49.5 321.5t138.5 229t207 133.5t261 45q193 0 336 -93t209 -253l-232 -90q-35 102 -114 160t-199 59h-6q-81 0 -150 -29q-71 -29 -126.5 -88.5t-86.5 -157t-31 -225.5q0 -245 103 -380.5t293 -135.5q55 0 106 8.5t84 21t58.5 25t37.5 20.5l11 9v317h-385 v191h628v-641q-9 -7 -26 -19t-72.5 -42.5t-115 -53.5t-149.5 -42t-179 -19q-101 0 -193.5 25t-176.5 81.5t-145.5 139t-98 207t-36.5 276.5z" />
<glyph unicode="H" horiz-adv-x="1376" d="M145 0v1434h256v-592h574v592h258v-1434h-258v610h-574v-610h-256z" />
<glyph unicode="I" horiz-adv-x="546" d="M145 0v1434h256v-1434h-256z" />
<glyph unicode="J" horiz-adv-x="546" d="M-180 -287l41 152q76 -33 139 -33q70 0 107.5 44.5t37.5 123.5v1434h256v-1422q0 -68 -17 -128t-54 -113t-104.5 -84t-159.5 -31q-135 0 -246 57z" />
<glyph unicode="K" horiz-adv-x="1306" d="M145 0v1434h256v-603h172l353 603h291l-418 -715l452 -719h-299l-381 612h-170v-612h-256z" />
<glyph unicode="L" horiz-adv-x="993" d="M145 0v1434h256v-1215h566v-219h-822z" />
<glyph unicode="M" horiz-adv-x="1746" d="M145 0v1434h312l422 -1094l415 1094h310v-1434h-238v1049l-401 -1049h-193l-389 1049v-1049h-238z" />
<glyph unicode="N" horiz-adv-x="1423" d="M145 0v1434h301l576 -1043v1043h256v-1434h-313l-564 1010v-1010h-256z" />
<glyph unicode="O" d="M102 723q0 180 49 320.5t135 227t198.5 131t244.5 44.5q130 0 241.5 -44.5t198 -131t136 -227t49.5 -320.5q0 -155 -39 -286.5t-114 -232.5t-196 -158.5t-276 -57.5t-277 57.5t-197 158.5t-114 232.5t-39 286.5zM354 719q0 -82 11.5 -153.5t39 -137t69.5 -112t106.5 -74 t146.5 -27.5t146.5 27.5t106.5 74t69.5 112t39 137t11.5 153.5q0 255 -103.5 381.5t-269.5 126.5q-79 0 -145 -29.5t-118 -89.5t-81 -159.5t-29 -229.5z" />
<glyph unicode="P" horiz-adv-x="1210" d="M145 0v1434h498q108 0 198.5 -28.5t159.5 -84.5t107.5 -147t38.5 -209q0 -103 -26 -184t-71 -134t-109.5 -88t-137.5 -50t-160 -15h-242v-494h-256zM401 713h236q123 0 190.5 65.5t67.5 192.5q0 113 -66.5 181.5t-197.5 68.5h-230v-508z" />
<glyph unicode="Q" d="M102 723q0 180 49 320.5t135 227t198.5 131t244.5 44.5q130 0 241.5 -44.5t198 -131t136 -227t49.5 -320.5q0 -140 -32 -262.5t-94.5 -220t-162 -161.5t-227.5 -83v-47q0 -82 42.5 -117t129.5 -35q58 0 143 31l41 -145q-112 -56 -240 -56q-92 0 -159 25.5t-104.5 71.5 t-56 100.5t-20.5 120.5v53q-127 19 -226 82.5t-161 161t-93.5 219.5t-31.5 262zM354 719q0 -82 11.5 -153.5t39 -137t69.5 -112t106.5 -74t146.5 -27.5t146.5 27.5t106.5 74t69.5 112t39 137t11.5 153.5q0 255 -103.5 381.5t-269.5 126.5q-79 0 -145 -29.5t-118 -89.5 t-81 -159.5t-29 -229.5z" />
<glyph unicode="R" horiz-adv-x="1282" d="M145 0v1434h517q108 0 199 -28t160 -82.5t107 -143.5q37 -87 37 -197v-6q-1 -152 -66.5 -254t-180.5 -154l292 -569h-286l-246 522q-36 -4 -92 -4h-185v-518h-256zM401 737h240q125 0 196.5 66.5t73.5 179.5v9q1 102 -63 164q-66 66 -199 65h-248v-484z" />
<glyph unicode="S" horiz-adv-x="1241" d="M72 164l127 192q7 -6 20.5 -16.5t57 -36.5t88.5 -45.5t112.5 -36t132.5 -16.5q130 0 204.5 53t74.5 145q0 45 -26 81.5t-70 62t-101.5 47.5t-120.5 44t-126 46t-120.5 57.5t-101.5 75t-70 102.5t-26 136q0 191 133 290t356 99q76 0 156 -14.5t140.5 -35t110 -40.5 t75.5 -34l26 -15l-96 -197q-25 13 -66.5 33t-149.5 53t-191 33q-238 0 -238 -160q0 -44 26 -78t70.5 -57t102 -43t121 -40t127 -42.5t121 -55.5t102 -74.5t70.5 -104t26 -140.5q-1 -108 -41 -193.5t-111 -139.5t-166 -82.5t-208 -28.5q-97 0 -190 18t-155.5 44t-111 52 t-71.5 44z" />
<glyph unicode="T" horiz-adv-x="1132" d="M51 1221v213h1047l-19 -213h-379v-1221h-256v1221h-393z" />
<glyph unicode="U" horiz-adv-x="1378" d="M139 535v899h256v-897q0 -157 79 -241.5t216 -84.5q138 0 215.5 85.5t77.5 242.5v895h256v-895q0 -142 -43 -250t-119.5 -172.5t-174 -96.5t-212.5 -32q-116 0 -213.5 32.5t-174 97t-120 171.5t-43.5 246z" />
<glyph unicode="V" horiz-adv-x="1316" d="M51 1434h271l337 -1137h9l329 1137h273l-455 -1434h-309z" />
<glyph unicode="W" horiz-adv-x="1964" d="M51 1434h271l262 -1137h8l266 1137h246l276 -1137h9l251 1137h273l-365 -1434h-303l-262 999l-260 -999h-305z" />
<glyph unicode="X" horiz-adv-x="1435" d="M72 0l469 725l-443 709h297l324 -545l330 545h294l-452 -705l469 -729h-295l-350 569l-346 -569h-297z" />
<glyph unicode="Y" horiz-adv-x="1314" d="M53 1434h293l305 -658h8l318 658h293l-484 -899v-535h-256v535z" />
<glyph unicode="Z" horiz-adv-x="1232" d="M70 199l739 1022h-682v213h942l53 -181l-743 -1034h733l-37 -219h-981z" />
<glyph unicode="[" horiz-adv-x="612" d="M141 -485v2033h432v-157h-247v-1719h247v-157h-432z" />
<glyph unicode="\" horiz-adv-x="876" d="M16 1493h220l624 -1640h-219z" />
<glyph unicode="]" horiz-adv-x="512" d="M43 -328h248v1719h-248v157h434v-2033h-434v157z" />
<glyph unicode="^" horiz-adv-x="1187" d="M98 657q1 1 45 73.5t105.5 174.5t123.5 203.5t106 172.5t46 71h164q2 0 106 -172t209.5 -347t106.5 -176h-217l-289 504l-291 -504q-213 2 -215 0z" />
<glyph unicode="_" horiz-adv-x="1118" d="M0 -113h1118v-206h-1118v206z" />
<glyph unicode="`" horiz-adv-x="1228" d="M457 1536h168l141 -330h-143z" />
<glyph unicode="a" horiz-adv-x="1175" d="M76 317v8q0 163 113 247q116 86 323 85q98 0 231 -20v63q0 88 -56 134q-55 45 -160 45h-5q-84 0 -167 -16.5t-124 -32.5l-41 -17l-43 193q233 77 406 77q119 -1 205 -29.5t137.5 -82.5t75.5 -127.5t24 -169.5v-434q0 -57 52 -62q19 -2 40 1t32 7l11 4v-170 q-80 -32 -169 -32q-74 0 -124.5 39.5t-70.5 105.5q-2 -1 -22.5 -19.5t-36 -30.5t-46.5 -32t-61 -32t-72 -21.5t-86 -9.5q-164 0 -264.5 84t-101.5 245zM330 344q0 -75 46 -117q44 -41 124 -41h4q124 2 237 86v232q-82 13 -162 13q-24 0 -47 -1q-94 -5 -147.5 -48.5 t-54.5 -123.5z" />
<glyph unicode="b" horiz-adv-x="1255" d="M131 0v1532l254 33v-682q42 95 139 149q90 51 202 51h17q64 -2 122 -20t113.5 -58.5t95.5 -100.5t64.5 -152.5t24.5 -206.5q0 -249 -119.5 -403t-332.5 -154q-118 0 -206.5 52t-131.5 144l-35 -184h-207zM375 539q0 -72 14 -130t44.5 -104.5t84 -72t127.5 -25.5 q125 0 191.5 88t66.5 248q0 90 -21 156t-58.5 102t-82 52.5t-98.5 16.5q-115 0 -191.5 -88t-76.5 -243z" />
<glyph unicode="c" horiz-adv-x="1138" d="M94 537q0 255 141.5 398t368.5 148h16q176 -1 290 -83q118 -86 151 -232l-236 -76q-19 82 -75 129t-142 47q-115 0 -187.5 -84.5t-72.5 -242.5q0 -68 13.5 -125.5t42.5 -105t80 -74.5t120 -27q174 0 225 170l236 -78q-51 -159 -173 -236t-294 -77q-128 0 -226.5 45 t-158 122.5t-89.5 174t-30 207.5z" />
<glyph unicode="d" horiz-adv-x="1263" d="M90 539q0 111 27.5 203.5t72.5 154.5t105.5 105t124 62t129.5 19q113 0 202 -53t128 -149v651l256 33v-1565h-213l-29 184q-112 -193 -342 -196h-8q-136 0 -239 70q-106 72 -160 197.5t-54 283.5zM352 541q0 -147 63.5 -236.5t198.5 -89.5q132 0 201.5 90.5t69.5 233.5 q0 88 -22.5 154t-61.5 103.5t-86.5 55.5t-102.5 18q-115 0 -187.5 -81t-72.5 -248z" />
<glyph unicode="e" horiz-adv-x="1169" d="M90 549q0 254 149 397q143 137 367 137h19q96 -2 180.5 -38.5t148.5 -102.5t98 -168q26 -81 27 -175q0 -25 -2 -52l-4 -33h-725q2 -144 66 -225.5t198 -81.5q82 0 143 45.5t89 124.5l229 -82q-55 -147 -181.5 -227t-281.5 -80q-261 0 -390.5 149.5t-129.5 411.5zM360 645 h453v12q0 111 -55 169.5t-147 58.5h-9q-102 -2 -167.5 -66t-74.5 -174z" />
<glyph unicode="f" horiz-adv-x="720" d="M27 858v205h168v145q0 169 89 263t265 94q111 0 203 -37l-33 -178q-42 12 -109 12q-86 0 -122.5 -43t-36.5 -152v-104h233l-33 -205h-200v-858h-256v858h-168z" />
<glyph unicode="g" horiz-adv-x="1261" d="M92 539q0 111 27.5 203.5t72.5 154.5t105.5 105t124 62t129.5 19q239 0 340 -194l27 184h212v-911q0 -137 -28.5 -240t-90 -179t-165 -114.5t-248.5 -38.5q-117 0 -240.5 28t-197.5 65l59 192q3 -1 25 -10t42 -16.5t54.5 -18t67.5 -17.5t76 -12.5t85 -5.5 q165 0 236.5 75.5t71.5 215.5v94q-113 -167 -330 -170h-11q-205 0 -323 142q-121 146 -121 387zM356 541q0 -147 63.5 -236.5t198.5 -89.5q132 0 199.5 90.5t67.5 233.5q0 88 -22 154t-60.5 103.5t-85 55.5t-101.5 18q-116 0 -188 -80.5t-72 -248.5z" />
<glyph unicode="h" horiz-adv-x="1232" d="M131 0v1534l254 31v-664q55 90 147 135t205 47h3q178 -1 274 -105q96 -106 96 -278v-700h-254v618q0 252 -201 252q-71 0 -124 -27t-84.5 -73.5t-46.5 -104t-15 -124.5v-541h-254z" />
<glyph unicode="i" horiz-adv-x="595" d="M59 862v211h406v-1073h-256v862h-150zM186 1364q0 55 40 91t110 36q64 0 107.5 -35.5t43.5 -93.5q0 -63 -43 -98t-108 -35q-70 0 -110 38.5t-40 96.5z" />
<glyph unicode="j" horiz-adv-x="516" d="M-174 -340l55 168q64 -37 121 -37q63 0 96 33.5t33 112.5v1136h254v-1130q0 -77 -13.5 -136.5t-45 -108t-87 -76.5t-133.5 -32q-17 -1 -33 -1q-59 0 -113 13q-70 18 -102 38zM111 1364q0 55 39.5 91t109.5 36q64 0 108 -35.5t44 -93.5q0 -63 -43.5 -98t-108.5 -35 q-70 0 -109.5 38.5t-39.5 96.5z" />
<glyph unicode="k" horiz-adv-x="1097" d="M131 0v1534l254 31v-938h119l250 440h286l-321 -530l350 -537h-293l-270 416h-121v-416h-254z" />
<glyph unicode="l" horiz-adv-x="655" d="M131 326v1208l254 31v-1215q0 -81 32.5 -113t94.5 -32q32 0 64.5 15t41.5 24l48 -183q-118 -73 -232 -73q-153 0 -228 92t-75 246z" />
<glyph unicode="m" horiz-adv-x="1845" d="M131 0v1073h203l37 -190q45 96 133 148t198 54q242 0 320 -198q45 96 140.5 146t205.5 52h3q177 1 262 -103t85 -282v-700h-254v618q0 130 -39 191t-139 61q-233 0 -233 -297v-573h-254v618q0 130 -39 191t-139 61q-57 0 -100 -18t-68.5 -47.5t-41 -73.5t-21 -89 t-5.5 -101v-541h-254z" />
<glyph unicode="n" horiz-adv-x="1236" d="M131 0v1073h201l39 -190q50 99 147.5 148.5t218.5 51.5h3q178 -1 274 -105q96 -106 96 -278v-700h-254v618q0 252 -201 252q-71 0 -124 -27t-84.5 -73.5t-46.5 -104t-15 -124.5v-541h-254z" />
<glyph unicode="o" horiz-adv-x="1210" d="M92 535q0 134 40.5 240t111.5 172.5t165 101t205 34.5q102 0 191.5 -34.5t159.5 -101t110.5 -173t40.5 -239.5q0 -114 -33.5 -212.5t-96.5 -173.5t-161.5 -118t-220.5 -43q-132 0 -232 42.5t-160 118.5t-90 173t-30 213zM358 535q0 -68 12.5 -124.5t40 -104.5t77.5 -75.5 t120 -27.5q83 0 141.5 48.5t84.5 121.5t26 162q0 168 -70 250.5t-176 82.5q-115 0 -185.5 -81t-70.5 -252z" />
<glyph unicode="p" horiz-adv-x="1251" d="M131 -410v1483h203l37 -192q45 93 145 149q94 53 205 53h16q64 -2 122 -20t114 -58.5t96.5 -100.5t65 -152.5t24.5 -206.5q0 -163 -51.5 -288t-155.5 -197t-247 -72q-111 0 -194.5 45.5t-123.5 128.5v-572h-256zM369 539q0 -151 64 -241.5t208 -90.5q124 0 191 88.5 t67 247.5q0 90 -21 156t-58.5 102t-82 52.5t-98.5 16.5q-116 0 -193 -88t-77 -243z" />
<glyph unicode="q" horiz-adv-x="1255" d="M92 539q0 135 38.5 241.5t106 172t155.5 99.5q85 33 186 33h6q103 0 198.5 -42t163.5 -119l74 149h106v-1483h-254v568q-112 -167 -329 -170h-8q-136 0 -237 70q-103 73 -154.5 197.5t-51.5 283.5zM356 541q0 -147 63.5 -236.5t198.5 -89.5q132 0 200.5 90.5t68.5 233.5 q0 88 -22.5 154t-61.5 103.5t-85.5 55.5t-101.5 18q-116 0 -188 -80.5t-72 -248.5z" />
<glyph unicode="r" horiz-adv-x="864" d="M131 0v1073h201l47 -221q69 231 334 231h14q63 -3 111 -18l-39 -223q-63 20 -140 20h-14q-68 -2 -119.5 -28.5t-81.5 -71.5t-44.5 -100.5t-14.5 -122.5v-539h-254z" />
<glyph unicode="s" horiz-adv-x="1030" d="M61 127l99 180q5 -5 15.5 -13t45 -28.5t72 -36t96.5 -28.5t119 -13q194 0 194 125q0 42 -34 70.5t-88.5 44.5t-120 30.5t-130 36.5t-117 53.5t-83.5 89.5q-27 51 -27 120v18q6 147 115.5 227t319.5 80q94 0 190.5 -25t146.5 -50l50 -25l-90 -180q-15 10 -43 25 q-29 16 -109 40q-77 24 -150 23h-6q-81 0 -132 -29q-48 -27 -48 -82v-6q2 -30 29.5 -51.5t70.5 -32.5t97.5 -24.5t111 -26t110.5 -37.5t96 -58.5t67.5 -90.5t25.5 -131q0 -160 -127 -248q-124 -86 -316 -86h-9q-77 1 -151 15.5t-124 34.5t-89.5 40.5t-57.5 34.5z" />
<glyph unicode="t" horiz-adv-x="839" d="M57 858v205h162l31 285l211 28v-313h270l-35 -205h-235v-491q0 -162 139 -162q23 0 51.5 7t47.5 14t41 16l22 10l47 -195l-13 -5q-12 -6 -21 -10t-27.5 -11t-34.5 -12.5t-38.5 -11.5t-43 -10t-45.5 -6.5t-49 -2.5q-91 0 -157.5 28.5t-103 78.5t-53 108.5t-16.5 128.5v526 h-150z" />
<glyph unicode="u" horiz-adv-x="1245" d="M117 420v653h254v-618q0 -252 215 -252q70 0 124.5 34t86 92t47.5 128t16 149v467h254v-1073h-203l-37 233q-51 -120 -150 -182.5t-220 -62.5q-193 0 -290 112.5t-97 319.5z" />
<glyph unicode="v" horiz-adv-x="1134" d="M47 1073h254l258 -778h16l256 778h261l-400 -1073h-256z" />
<glyph unicode="w" horiz-adv-x="1724" d="M29 1073h264l209 -745h16l209 745h262l211 -745h14l213 745h265l-361 -1073h-252l-219 725h-16l-211 -725h-252z" />
<glyph unicode="x" horiz-adv-x="1167" d="M63 0l330 537l-293 536h271l215 -422l225 422h274l-297 -532l310 -541h-291l-225 418l-236 -418h-283z" />
<glyph unicode="y" horiz-adv-x="1148" d="M59 1073h254l265 -758h16l242 758h262l-398 -1089q-34 -93 -66 -157.5t-72 -114.5t-85 -77t-106 -39q-42 -8 -89 -8q-22 0 -44 2q-73 5 -170 25l45 215q62 -15 105 -20q17 -3 34 -3q23 0 42 5q35 7 56 19.5t42.5 46t35 66t35.5 93.5z" />
<glyph unicode="z" horiz-adv-x="1054" d="M74 193l626 677h-577v203h819l39 -217l-600 -655h582l-23 -201h-836z" />
<glyph unicode="{" horiz-adv-x="675" d="M45 444v156q114 0 170.5 66t56.5 163q0 37 -1 122.5t-1 250.5q0 84 19.5 143.5t50.5 94t84.5 53.5t106.5 25t131 6v-152q-121 0 -169.5 -43t-48.5 -143v-393q0 -110 -44.5 -179t-120.5 -92q72 -22 118.5 -91.5t46.5 -178.5v-402q0 -100 48.5 -143t169.5 -43v-151 q-76 0 -129 5.5t-106.5 25t-85 53.5t-51.5 93.5t-20 143.5q0 140 1 240.5t1 140.5q0 97 -56.5 163t-170.5 66z" />
<glyph unicode="|" horiz-adv-x="458" d="M137 -344v1821h187v-1821h-187z" />
<glyph unicode="}" horiz-adv-x="677" d="M29 -336q121 0 170 43t49 143v402q0 108 47 178t119 92q-76 23 -121 92t-45 179v393q0 100 -49 143t-170 43v152q55 0 95.5 -2.5t83.5 -11t73 -23t58 -38.5t44.5 -57.5t26.5 -81t10 -108.5q0 -165 -1 -250.5t-1 -122.5q0 -97 56.5 -163t170.5 -66v-156q-114 0 -170.5 -66 t-56.5 -163q0 -40 1 -140.5t1 -240.5q0 -84 -20 -143.5t-51.5 -93.5t-85 -53.5t-106 -25t-128.5 -5.5v151z" />
<glyph unicode="~" horiz-adv-x="989" d="M59 530q27 90 89 140.5t137 50.5q63 1 142 -31t149 -64t110 -32q73 0 107 98l147 -53q-31 -93 -94 -140.5t-127 -49.5q-72 -2 -152 29t-147 62.5t-107 30.5q-34 -2 -59.5 -23.5t-44.5 -72.5z" />
<glyph unicode="&#xa1;" horiz-adv-x="552" d="M135 891q0 60 43.5 104.5t104.5 44.5q58 0 100.5 -44.5t42.5 -104.5q0 -56 -42.5 -98.5t-100.5 -42.5q-61 0 -104.5 42.5t-43.5 98.5zM150 -401l30 956h205l31 -956h-266z" />
<glyph unicode="&#xa2;" horiz-adv-x="1091" d="M68 537q0 239 124 380t330 162v121h99v-117q168 -7 275.5 -93t137.5 -222l-237 -76q-17 70 -63 115t-113 55v-649q135 21 182 166l233 -78q-46 -147 -154 -223.5t-261 -87.5v-129h-99v129q-116 8 -205 56t-142.5 124t-80 168.5t-26.5 198.5zM322 541q0 -82 18.5 -147.5 t65 -114.5t116.5 -62v641q-91 -21 -145.5 -102t-54.5 -215z" />
<glyph unicode="&#xa3;" horiz-adv-x="1202" d="M43 35q15 79 56 139.5t88 89.5t94 37q6 23 6 82q0 105 -29 223h-182v191h125q-27 115 -27 190q0 93 23.5 172t74 145t140.5 104t211 38q66 0 123.5 -13t98.5 -35.5t75 -51.5t56 -60.5t38.5 -63.5t25 -61t14 -51.5t6.5 -35.5l1 -13l-217 -113v16.5t-4 40.5t-11.5 57.5 t-23.5 61.5t-38.5 58t-60 40.5t-83.5 16.5q-69 0 -117 -24t-72 -65t-33.5 -82.5t-9.5 -90.5q0 -51 39 -180h492v-191h-437q25 -156 21 -227q-3 -51 -12 -100q25 -5 73.5 -18t63.5 -17q10 -3 43.5 -11t45 -11t37 -9t39 -8t31 -4t31.5 -2q37 0 61 31.5t29 63.5l6 32l205 -76 q-2 -11 -6 -28.5t-23.5 -62.5t-47 -79.5t-81.5 -63t-122 -28.5q-112 0 -283 47q-12 3 -76 23.5t-104.5 29.5t-67.5 6q-39 -3 -69.5 -39t-34.5 -92z" />
<glyph unicode="&#xa4;" horiz-adv-x="1277" d="M100 84l117 113q-94 143 -94 383q0 216 92 358l-115 113q40 36 103 102q0 -2 104 -106q132 112 338 112q202 0 334 -115l108 109l103 -102l-117 -115q88 -138 88 -350q0 -241 -90 -387l119 -115l-103 -102l-108 108q-126 -102 -334 -102t-334 102q-18 -16 -62.5 -60 t-45.5 -48zM324 584q0 -188 75.5 -289.5t247.5 -101.5q169 0 243.5 101.5t74.5 289.5q0 192 -86.5 282t-233.5 90q-148 0 -234.5 -93t-86.5 -279z" />
<glyph unicode="&#xa5;" horiz-adv-x="1314" d="M53 1434h293l305 -658h8l318 658h293l-314 -572h222v-190h-320l-72 -131v-60h392v-190h-392v-291h-256v291h-380v190h378v60l-69 131h-309v190h210z" />
<glyph unicode="&#xa6;" horiz-adv-x="454" d="M137 -344v727h187v-727h-187zM137 745v732h187v-732h-187z" />
<glyph unicode="&#xa7;" horiz-adv-x="1069" d="M80 104l225 66q-1 -20 3.5 -43.5t19.5 -52.5t38 -52t65 -39t95 -16q97 -2 155 35.5t58 101.5q0 43 -34.5 76.5t-90 56.5t-122.5 44t-135 47t-124.5 58.5t-93 84.5t-39.5 119q-9 189 199 272q-87 41 -136.5 103.5t-49.5 160.5q0 64 24 117t64.5 89.5t95 62t114.5 38 t124 13.5q87 2 160.5 -17.5t123 -51.5t87 -76t57.5 -85.5t30 -85.5l-223 -65q1 20 -3 43t-18 52.5t-36.5 52.5t-63.5 39t-94 16q-97 1 -155 -36t-60 -102q0 -43 34.5 -76.5t89.5 -56.5t122 -44t134.5 -46.5t124 -58t93.5 -84.5t41 -119q11 -181 -199 -272 q88 -41 137.5 -103.5t49.5 -160.5q0 -79 -36 -141.5t-96.5 -100t-133.5 -57t-154 -21.5q-108 -2 -195 27t-141 78.5t-85.5 102t-45.5 107.5zM338 645q2 -36 20 -66t37.5 -48.5t66 -39.5t70 -29.5t83.5 -27.5l18 -6q23 14 45 32.5t44 55.5t19 74q-2 36 -19.5 65.5t-41 49.5 t-63.5 39t-72 30.5t-83 27.5q-11 3 -16 5q-118 -68 -108 -162z" />
<glyph unicode="&#xa8;" horiz-adv-x="1228" d="M334 1356q0 38 32 70t72 32q41 0 74 -32t33 -70q0 -40 -33 -73.5t-74 -33.5q-40 0 -72 33.5t-32 73.5zM723 1356q0 38 32 70t72 32q41 0 74 -32t33 -70q0 -40 -33 -73.5t-74 -33.5q-40 0 -72 33.5t-32 73.5z" />
<glyph unicode="&#xa9;" horiz-adv-x="1597" d="M156 659q0 186 85 336.5t235 236t335 85.5q186 0 336.5 -85.5t235.5 -236t85 -336.5q0 -185 -85 -335t-235.5 -235t-336.5 -85q-185 0 -335 85t-235 235t-85 335zM303 659q0 -223 142.5 -365t363.5 -142q226 0 369 142t143 365q0 224 -143 367t-369 143q-222 0 -364 -143 t-142 -367zM494 662q0 171 94 268.5t235 97.5q88 0 161.5 -42.5t107.5 -121.5l-119 -67q-20 48 -61.5 75t-92.5 27q-84 0 -138 -60.5t-54 -174.5q0 -103 47 -170.5t143 -67.5q57 0 94.5 23t65.5 77l119 -69q-86 -164 -279 -164q-106 0 -181 53t-108.5 134.5t-33.5 181.5z " />
<glyph unicode="&#xaa;" horiz-adv-x="802" d="M90 1079q16 181 262 215q38 6 125 15t96 10v55q0 144 -165 144q-46 0 -80 -15t-49.5 -37t-24 -44t-9.5 -37l-1 -15l-117 47q0 5 1.5 13t8 30.5t17 43.5t32.5 46.5t50 44t73 31t99 12.5q299 0 299 -272v-526h-109l-20 121q-39 -57 -90 -90.5t-134 -36.5 q-117 -5 -195.5 59.5t-68.5 185.5zM221 1090q-9 -65 33.5 -103.5t114.5 -38.5q87 0 143.5 51.5t60.5 98.5v121q-112 -13 -184 -21q-162 -21 -168 -108z" />
<glyph unicode="&#xab;" horiz-adv-x="948" d="M84 543l274 428h197l-272 -428l272 -428h-197zM446 543l275 428h197l-273 -428l273 -428h-197z" />
<glyph unicode="&#xac;" horiz-adv-x="1257" d="M94 573v205h1102v-530h-211v325h-891z" />
<glyph unicode="&#xad;" horiz-adv-x="544" d="M16 446v207h508v-207h-508z" />
<glyph unicode="&#xae;" horiz-adv-x="1705" d="M156 659q0 186 85 336.5t235 236t335 85.5q186 0 336.5 -85.5t235.5 -236t85 -336.5q0 -185 -85 -335t-235.5 -235t-336.5 -85q-185 0 -335 85t-235 235t-85 335zM303 659q0 -223 142.5 -365t363.5 -142q226 0 369 142t143 365q0 224 -143 367t-369 143q-222 0 -364 -143 t-142 -367zM567 317v689h258q113 0 184 -56t70 -164q-3 -142 -127 -194l148 -275h-146l-125 252q-24 -2 -36 -2h-93v-250h-133zM700 680h111q64 0 99.5 28.5t37.5 79.5q0 48 -33 76.5t-98 28.5h-117v-213z" />
<glyph unicode="&#xaf;" horiz-adv-x="1218" d="M379 1331v135h516v-135h-516z" />
<glyph unicode="&#xb0;" horiz-adv-x="823" d="M123 1149q0 121 84 203t209 82q122 0 209.5 -83.5t87.5 -201.5q0 -127 -87 -213t-210 -86t-208 85t-85 214zM264 1151q0 -70 43.5 -114t108.5 -44q64 0 109.5 45t45.5 113q0 60 -46 103.5t-109 43.5q-64 0 -108 -42.5t-44 -104.5z" />
<glyph unicode="&#xb1;" horiz-adv-x="1126" d="M33 45v207h1057v-207h-1057zM35 727v207h424v377h211v-377h422v-207h-422v-356h-211v356h-424z" />
<glyph unicode="&#xb2;" horiz-adv-x="737" d="M90 950q188 98 304 219t116 224q0 64 -37 96.5t-104 32.5q-38 0 -68 -15t-45.5 -37t-26 -44t-13.5 -37l-3 -15l-117 49q2 9 6 23.5t23.5 52t47 66t80.5 52t120 23.5q125 0 199.5 -69t74.5 -174q0 -72 -28.5 -137.5t-80.5 -119t-106 -93.5t-123 -80h332l-23 -123h-514z " />
<glyph unicode="&#xb3;" horiz-adv-x="751" d="M90 1016l129 39q0 -5 1 -13t9.5 -29t23 -37t45.5 -29t73 -13q72 0 114 32t45 97q2 48 -21 79.5t-57.5 43t-69.5 16t-60 2.5l-25 -2v105q4 0 12 -0.5t29.5 0t41.5 4t44.5 12t42 22t29.5 36.5t12 53q0 47 -34 72.5t-97 25.5q-41 0 -72 -12t-45.5 -29.5t-23 -34.5t-10.5 -29 l-1 -12l-119 41q0 4 1.5 10.5t8.5 25.5t17.5 36t32 38t48.5 36t69.5 25.5t93.5 10.5q130 0 199 -57t69 -147q0 -42 -15.5 -75.5t-40.5 -53.5t-50 -31.5t-52 -16.5q29 -4 58 -16.5t58 -35t46.5 -60.5t16.5 -86q-2 -98 -78.5 -166t-214.5 -68q-55 0 -100 10.5t-73.5 27.5 t-50 37t-32.5 40.5t-17.5 37.5t-7.5 28z" />
<glyph unicode="&#xb4;" horiz-adv-x="1228" d="M600 1206l141 330h156l-166 -330h-131z" />
<glyph unicode="&#xb5;" horiz-adv-x="1230" d="M129 -133v1206h256v-618q0 -252 201 -252q70 0 122 26.5t81.5 74t43 104t13.5 124.5v541h256v-1073h-203l-37 190q-106 -202 -313 -202q-102 0 -166 67v-555h-221z" />
<glyph unicode="&#xb6;" horiz-adv-x="1308" d="M70 975q0 100 32.5 180t86 131.5t127.5 86t153 49t166 14.5l565 -4v-1780h-254v1608l-125 2v-1606h-256v836q-107 5 -194.5 35.5t-156 87.5t-106.5 149t-38 211z" />
<glyph unicode="&#xb7;" horiz-adv-x="417" d="M66 567q0 58 41.5 101t99.5 43q61 0 104 -43t43 -101q0 -60 -43 -103.5t-104 -43.5q-58 0 -99.5 43.5t-41.5 103.5z" />
<glyph unicode="&#xb8;" horiz-adv-x="1228" d="M463 -348l22 90q66 -31 125 -31q49 0 76 13t31 53q6 40 -36 60.5t-142 23.5l34 172h127l-20 -101q97 -10 141 -59t33 -121q-9 -75 -66.5 -112.5t-148.5 -34.5q-41 2 -85 13.5t-68 22.5z" />
<glyph unicode="&#xb9;" horiz-adv-x="557" d="M100 1524v121h283v-801h-135v680h-148z" />
<glyph unicode="&#xba;" horiz-adv-x="821" d="M61 1227q0 199 100.5 306t256.5 107q144 0 243 -108t99 -305q0 -177 -93 -294.5t-255 -117.5q-118 0 -198.5 56.5t-116.5 147t-36 208.5zM199 1229q0 -57 11 -105t35 -88.5t66.5 -64t100.5 -23.5q103 0 159 82t56 199q0 140 -60.5 210t-148.5 70q-97 0 -158 -68t-61 -212 z" />
<glyph unicode="&#xbb;" horiz-adv-x="935" d="M47 115l272 428l-272 428h197l274 -428l-274 -428h-197zM408 115l272 428l-272 428h198l275 -428l-275 -428h-198z" />
<glyph unicode="&#xbc;" horiz-adv-x="1382" d="M63 0l988 1481h147l-985 -1481h-150zM68 1350v120h284v-800h-137v680h-147zM672 182v123l368 492h121v-494h123l-10 -121h-113v-182h-133v182h-356zM811 303h217v309z" />
<glyph unicode="&#xbd;" horiz-adv-x="1476" d="M68 1350v120h284v-800h-137v680h-147zM76 0l987 1481h145l-985 -1481h-147zM823 106q188 98 304 219t116 224q0 64 -37 96.5t-104 32.5q-38 0 -68 -15t-45.5 -37t-26 -44t-13.5 -37l-3 -15l-117 50q2 9 6 23.5t24 52t47.5 66t80.5 52t119 23.5q125 0 199.5 -69.5 t74.5 -174.5q0 -72 -28.5 -137.5t-80.5 -119t-106 -93.5t-123 -80h332l-22 -123h-514z" />
<glyph unicode="&#xbe;" horiz-adv-x="1468" d="M63 868l127 39q0 -5 1 -13t9.5 -29t22 -37t43.5 -29t70 -13q68 0 109 31.5t42 97.5q2 47 -20 78.5t-55 43.5t-67 17t-57 3l-24 -2v104q8 -1 21.5 -1.5t48.5 4t61.5 15.5t48 38.5t21.5 68.5q0 100 -123 100q-39 0 -68.5 -12t-43.5 -29t-22 -34t-10 -29l-1 -12l-117 41 q1 7 3.5 19.5t19 44t42 55.5t77 43.5t118.5 19.5q126 0 193 -57.5t67 -147.5q0 -80 -46.5 -123.5t-104.5 -52.5q64 -10 119.5 -60t54.5 -139q-3 -98 -78 -165.5t-207 -67.5q-53 0 -97 10.5t-71.5 27t-48.5 37t-31.5 41t-17 37t-8.5 27.5zM201 0l987 1481h147l-985 -1481 h-149zM782 182v123l369 492h123v-494h121l-9 -121h-112v-182h-133v182h-359zM922 303h219v309z" />
<glyph unicode="&#xbf;" horiz-adv-x="1095" d="M102 16q0 164 102.5 286.5t274.5 135.5v146h230v-275q-62 0 -76 -2q-80 -6 -140 -33t-91.5 -67.5t-46.5 -84t-15 -89.5q0 -102 57 -157.5t162 -55.5q49 0 88.5 13.5t64 35.5t42.5 48.5t26.5 53t14 48.5t5.5 35l1 14l213 -97q-1 -8 -3 -21t-13.5 -50.5t-29.5 -71.5 t-54 -76t-82.5 -72t-120 -50.5t-162.5 -20.5q-210 0 -328.5 111.5t-118.5 295.5zM453 903q0 60 43 104t104 44q58 0 99.5 -44t41.5 -104q0 -56 -41.5 -98.5t-99.5 -42.5q-61 0 -104 42.5t-43 98.5z" />
<glyph unicode="&#xc0;" horiz-adv-x="1431" d="M55 0l508 1434h309l506 -1434h-270l-117 346h-551l-116 -346h-269zM487 1896h168l142 -329h-144zM512 565h406l-193 541h-16z" />
<glyph unicode="&#xc1;" horiz-adv-x="1431" d="M55 0l508 1434h309l506 -1434h-270l-117 346h-551l-116 -346h-269zM512 565h406l-193 541h-16zM649 1567l142 329h157l-166 -329h-133z" />
<glyph unicode="&#xc2;" horiz-adv-x="1431" d="M55 0l508 1434h309l506 -1434h-270l-117 346h-551l-116 -346h-269zM410 1546l225 350h153l232 -350h-150l-155 244l-154 -244h-151zM512 565h406l-193 541h-16z" />
<glyph unicode="&#xc3;" horiz-adv-x="1431" d="M55 0l508 1434h309l506 -1434h-270l-117 346h-551l-116 -346h-269zM426 1733q62 78 154 82q36 1 95.5 -19t104 -36.5t91 -9.5t71.5 52l62 -102q-24 -39 -67.5 -59.5t-94.5 -20.5q-40 1 -98 21t-99 36.5t-86.5 10t-75.5 -51.5zM512 565h406l-193 541h-16z" />
<glyph unicode="&#xc4;" horiz-adv-x="1431" d="M55 0l508 1434h309l506 -1434h-270l-117 346h-551l-116 -346h-269zM414 1716q0 39 32.5 71t73.5 32q40 0 73.5 -32.5t33.5 -70.5q0 -40 -33.5 -73t-73.5 -33q-41 0 -73.5 33t-32.5 73zM512 565h406l-193 541h-16zM805 1716q0 39 31.5 71t72.5 32t74 -32t33 -71 q0 -40 -33 -73t-74 -33t-72.5 33t-31.5 73z" />
<glyph unicode="&#xc5;" horiz-adv-x="1431" d="M55 0l508 1434h309l506 -1434h-270l-117 346h-551l-116 -346h-269zM502 1759q0 88 60.5 147.5t152.5 59.5q88 0 150.5 -60.5t62.5 -146.5q0 -93 -62 -155t-151 -62q-91 0 -152 61t-61 156zM512 565h406l-193 541h-16zM610 1759q0 -49 30 -78.5t77 -29.5q44 0 76 31t32 77 q0 42 -32.5 73.5t-75.5 31.5q-45 0 -76 -31t-31 -74z" />
<glyph unicode="&#xc6;" horiz-adv-x="2019" d="M-20 0l1021 1434h941l-31 -213h-586v-371h565v-219h-565v-412h621v-219h-877v346h-547l-243 -346h-299zM672 565h397v557z" />
<glyph unicode="&#xc7;" horiz-adv-x="1382" d="M102 715q0 144 33.5 264t91.5 204t138.5 142.5t174 87.5t197.5 31q217 6 376 -100.5t216 -280.5q-8 -5 -110.5 -53t-104.5 -49q-32 118 -126 193t-228 75q-85 0 -156.5 -30t-127 -89.5t-87 -158t-31.5 -226.5q0 -106 24.5 -197.5t72 -163.5t124.5 -113.5t175 -41.5 q122 0 217 66t139 184l219 -101q-73 -166 -224 -267.5t-349 -102.5l-11 -56q97 -10 141.5 -59t33.5 -121q-10 -75 -67 -112.5t-148 -34.5q-41 2 -85 13.5t-68 22.5l-24 11l21 90q68 -31 127 -31q49 0 75.5 13t30.5 53q6 40 -36 60.5t-142 23.5l27 137q-253 35 -391 228 t-138 489z" />
<glyph unicode="&#xc8;" horiz-adv-x="1103" d="M145 0v1434h873l-31 -213h-588v-371h568v-219h-568v-412h623v-219h-877zM397 1896h168l142 -329h-144z" />
<glyph unicode="&#xc9;" horiz-adv-x="1103" d="M145 0v1434h873l-31 -213h-588v-371h568v-219h-568v-412h623v-219h-877zM461 1567l141 329h156l-166 -329h-131z" />
<glyph unicode="&#xca;" horiz-adv-x="1103" d="M145 0v1434h873l-31 -213h-588v-371h568v-219h-568v-412h623v-219h-877zM260 1546l223 350h156l231 -350h-149l-156 244l-153 -244h-152z" />
<glyph unicode="&#xcb;" horiz-adv-x="1103" d="M145 0v1434h873l-31 -213h-588v-371h568v-219h-568v-412h623v-219h-877zM252 1716q0 38 32 70.5t72 32.5q41 0 74 -32t33 -71q0 -40 -33 -73t-74 -33q-40 0 -72 33t-32 73zM641 1716q0 39 33 71t74 32q40 0 72 -32.5t32 -70.5q0 -40 -32 -73t-72 -33q-41 0 -74 33t-33 73 z" />
<glyph unicode="&#xcc;" horiz-adv-x="546" d="M84 1896h166l141 -329h-141zM145 0v1434h256v-1434h-256z" />
<glyph unicode="&#xcd;" horiz-adv-x="546" d="M145 0v1434h256v-1434h-256zM162 1567l141 329h156l-166 -329h-131z" />
<glyph unicode="&#xce;" horiz-adv-x="546" d="M0 1546l197 350h155l201 -350h-150l-124 244l-127 -244h-152zM145 0v1434h256v-1434h-256z" />
<glyph unicode="&#xcf;" horiz-adv-x="546" d="M2 1716q0 39 31.5 71t72.5 32t74 -32t33 -71q0 -40 -33 -73t-74 -33t-72.5 33t-31.5 73zM145 0v1434h256v-1434h-256zM334 1716q0 39 32.5 71t73.5 32q40 0 72.5 -32.5t32.5 -70.5q0 -40 -32.5 -73t-72.5 -33q-41 0 -73.5 33t-32.5 73z" />
<glyph unicode="&#xd0;" horiz-adv-x="1409" d="M49 625v204h96v605h488q148 0 269 -39.5t213 -119.5t143 -211.5t51 -305.5q0 -191 -53.5 -338.5t-149.5 -238t-222 -136t-278 -45.5h-461v625h-96zM401 219h205q118 0 205.5 40t139 112.5t76 165.5t24.5 208q0 240 -109 358t-317 118h-224v-392h203v-204h-203v-406z" />
<glyph unicode="&#xd1;" horiz-adv-x="1423" d="M145 0v1434h301l576 -1043v1043h256v-1434h-313l-564 1010v-1010h-256zM422 1733q62 78 156 82q36 1 94.5 -19t103 -36.5t91 -9.5t71.5 52l61 -102q-50 -80 -159 -80q-41 1 -99 21t-99 36.5t-86.5 10t-76.5 -51.5z" />
<glyph unicode="&#xd2;" d="M102 723q0 180 49 320.5t135 227t198.5 131t244.5 44.5q130 0 241.5 -44.5t198 -131t136 -227t49.5 -320.5q0 -155 -39 -286.5t-114 -232.5t-196 -158.5t-276 -57.5t-277 57.5t-197 158.5t-114 232.5t-39 286.5zM354 719q0 -82 11.5 -153.5t39 -137t69.5 -112t106.5 -74 t146.5 -27.5t146.5 27.5t106.5 74t69.5 112t39 137t11.5 153.5q0 255 -103.5 381.5t-269.5 126.5q-79 0 -145 -29.5t-118 -89.5t-81 -159.5t-29 -229.5zM551 1896h168l141 -329h-143z" />
<glyph unicode="&#xd3;" d="M102 723q0 180 49 320.5t135 227t198.5 131t244.5 44.5q130 0 241.5 -44.5t198 -131t136 -227t49.5 -320.5q0 -155 -39 -286.5t-114 -232.5t-196 -158.5t-276 -57.5t-277 57.5t-197 158.5t-114 232.5t-39 286.5zM354 719q0 -82 11.5 -153.5t39 -137t69.5 -112t106.5 -74 t146.5 -27.5t146.5 27.5t106.5 74t69.5 112t39 137t11.5 153.5q0 255 -103.5 381.5t-269.5 126.5q-79 0 -145 -29.5t-118 -89.5t-81 -159.5t-29 -229.5zM614 1567l142 329h155l-166 -329h-131z" />
<glyph unicode="&#xd4;" d="M102 723q0 180 49 320.5t135 227t198.5 131t244.5 44.5q130 0 241.5 -44.5t198 -131t136 -227t49.5 -320.5q0 -155 -39 -286.5t-114 -232.5t-196 -158.5t-276 -57.5t-277 57.5t-197 158.5t-114 232.5t-39 286.5zM354 719q0 -82 11.5 -153.5t39 -137t69.5 -112t106.5 -74 t146.5 -27.5t146.5 27.5t106.5 74t69.5 112t39 137t11.5 153.5q0 255 -103.5 381.5t-269.5 126.5q-79 0 -145 -29.5t-118 -89.5t-81 -159.5t-29 -229.5zM422 1546l225 350h156l231 -350h-151l-154 244l-156 -244h-151z" />
<glyph unicode="&#xd5;" d="M102 723q0 180 49 320.5t135 227t198.5 131t244.5 44.5q130 0 241.5 -44.5t198 -131t136 -227t49.5 -320.5q0 -155 -39 -286.5t-114 -232.5t-196 -158.5t-276 -57.5t-277 57.5t-197 158.5t-114 232.5t-39 286.5zM354 719q0 -82 11.5 -153.5t39 -137t69.5 -112t106.5 -74 t146.5 -27.5t146.5 27.5t106.5 74t69.5 112t39 137t11.5 153.5q0 255 -103.5 381.5t-269.5 126.5q-79 0 -145 -29.5t-118 -89.5t-81 -159.5t-29 -229.5zM438 1733q65 78 156 82q36 1 94.5 -19t103 -36.5t91 -9.5t71.5 52l62 -102q-50 -80 -160 -80q-41 1 -98.5 21 t-98.5 36.5t-86.5 10t-76.5 -51.5z" />
<glyph unicode="&#xd6;" d="M102 723q0 180 49 320.5t135 227t198.5 131t244.5 44.5q130 0 241.5 -44.5t198 -131t136 -227t49.5 -320.5q0 -155 -39 -286.5t-114 -232.5t-196 -158.5t-276 -57.5t-277 57.5t-197 158.5t-114 232.5t-39 286.5zM354 719q0 -82 11.5 -153.5t39 -137t69.5 -112t106.5 -74 t146.5 -27.5t146.5 27.5t106.5 74t69.5 112t39 137t11.5 153.5q0 255 -103.5 381.5t-269.5 126.5q-79 0 -145 -29.5t-118 -89.5t-81 -159.5t-29 -229.5zM426 1716q0 39 32.5 71t73.5 32q40 0 72.5 -32.5t32.5 -70.5q0 -40 -32.5 -73t-72.5 -33q-41 0 -73.5 33t-32.5 73z M817 1716q0 39 32 71t73 32t73.5 -32t32.5 -71q0 -40 -32.5 -73t-73.5 -33t-73 33t-32 73z" />
<glyph unicode="&#xd7;" horiz-adv-x="1128" d="M115 969l149 149l307 -307l306 305l145 -145l-305 -305l303 -304l-150 -149l-305 303l-301 -303l-145 145l303 304z" />
<glyph unicode="&#xd8;" d="M102 723q0 180 49 320.5t135 227t198.5 131t244.5 44.5q91 0 186 -29l41 107h154l-61 -160q143 -83 224 -244.5t81 -396.5q0 -155 -39 -286.5t-114 -232.5t-196 -158.5t-276 -57.5q-106 0 -188 26l-49 -133h-156l72 189q-151 88 -228.5 260t-77.5 393zM354 719 q0 -290 144 -412l340 899q-52 21 -111 21q-79 0 -145 -29.5t-118 -89.5t-81 -159.5t-29 -229.5zM623 229q43 -14 104 -14q82 0 146.5 27.5t106.5 74t69.5 112t39 137t11.5 153.5q0 280 -139 409z" />
<glyph unicode="&#xd9;" horiz-adv-x="1378" d="M139 535v899h256v-897q0 -157 79 -241.5t216 -84.5q138 0 215.5 85.5t77.5 242.5v895h256v-895q0 -142 -43 -250t-119.5 -172.5t-174 -96.5t-212.5 -32q-116 0 -213.5 32.5t-174 97t-120 171.5t-43.5 246zM502 1896h168l141 -329h-143z" />
<glyph unicode="&#xda;" horiz-adv-x="1378" d="M139 535v899h256v-897q0 -157 79 -241.5t216 -84.5q138 0 215.5 85.5t77.5 242.5v895h256v-895q0 -142 -43 -250t-119.5 -172.5t-174 -96.5t-212.5 -32q-116 0 -213.5 32.5t-174 97t-120 171.5t-43.5 246zM557 1567l141 329h158l-166 -329h-133z" />
<glyph unicode="&#xdb;" horiz-adv-x="1378" d="M139 535v899h256v-897q0 -157 79 -241.5t216 -84.5q138 0 215.5 85.5t77.5 242.5v895h256v-895q0 -142 -43 -250t-119.5 -172.5t-174 -96.5t-212.5 -32q-116 0 -213.5 32.5t-174 97t-120 171.5t-43.5 246zM383 1546l223 350h156l231 -350h-149l-156 244l-153 -244h-152z " />
<glyph unicode="&#xdc;" horiz-adv-x="1378" d="M139 535v899h256v-897q0 -157 79 -241.5t216 -84.5q138 0 215.5 85.5t77.5 242.5v895h256v-895q0 -142 -43 -250t-119.5 -172.5t-174 -96.5t-212.5 -32q-116 0 -213.5 32.5t-174 97t-120 171.5t-43.5 246zM389 1716q0 39 32 71t73 32t73.5 -32t32.5 -71q0 -40 -32.5 -73 t-73.5 -33t-73 33t-32 73zM778 1716q0 38 32.5 70.5t72.5 32.5q41 0 73.5 -32t32.5 -71q0 -40 -32.5 -73t-73.5 -33q-40 0 -72.5 33t-32.5 73z" />
<glyph unicode="&#xdd;" horiz-adv-x="1314" d="M53 1434h293l305 -658h8l318 658h293l-484 -899v-535h-256v535zM539 1567l141 329h156l-166 -329h-131z" />
<glyph unicode="&#xde;" horiz-adv-x="1177" d="M145 0v1434h254v-217h195q66 0 130.5 -16t128.5 -53t113 -91.5t79 -138.5t30 -187t-31 -188.5t-81.5 -142t-116.5 -95.5t-133.5 -56.5t-134.5 -17.5h-179v-231h-254zM399 469h166q106 0 182 65t76 195q0 66 -21.5 117t-58 81t-80 45t-92.5 15h-172v-518z" />
<glyph unicode="&#xdf;" horiz-adv-x="1302" d="M145 0v997q0 197 124.5 320.5t332.5 126.5q73 1 142.5 -11.5t132 -41.5t108 -71.5t70 -106t18.5 -140.5q-2 -55 -21.5 -100t-46 -73.5t-53 -51.5t-46 -46.5t-21.5 -47.5q-4 -32 21.5 -59.5t66.5 -47t89.5 -50t89.5 -65t67.5 -94.5t23.5 -137q-6 -139 -110.5 -227 t-249.5 -86q-109 1 -206 44t-153 93l117 168q4 -3 10.5 -9t27.5 -21t43.5 -26t55 -20.5t64.5 -9.5q155 0 155 133q0 39 -27 72.5t-67.5 56.5t-87.5 50.5t-87.5 54t-67.5 68.5t-27 93q0 42 19.5 77t47.5 60.5l56 51t47.5 59t19.5 72.5q0 153 -205 153q-103 -2 -160 -68 t-57 -186v-954h-256z" />
<glyph unicode="&#xe0;" horiz-adv-x="1175" d="M76 317q-3 169 113 254.5t323 85.5q98 0 231 -20v63q0 89 -56 134.5t-165 44.5q-84 0 -167 -16.5t-124 -32.5l-41 -17l-43 193q233 77 406 77q119 -1 205 -29.5t137.5 -82.5t75.5 -127.5t24 -169.5v-434q0 -57 52 -62q19 -2 40 1t32 7l11 4v-170q-80 -32 -169 -32 q-74 0 -124.5 39.5t-70.5 105.5q-2 -1 -22.5 -19.5t-36 -30.5t-46.5 -32t-61 -32t-72 -21.5t-86 -9.5q-164 0 -264.5 84t-101.5 245zM330 344q0 -75 45.5 -117t128.5 -41q124 2 237 86v232q-106 17 -209 12q-94 -5 -147.5 -48.5t-54.5 -123.5zM381 1536h166l141 -330h-141z " />
<glyph unicode="&#xe1;" horiz-adv-x="1175" d="M76 317q-3 169 113 254.5t323 85.5q98 0 231 -20v63q0 89 -56 134.5t-165 44.5q-84 0 -167 -16.5t-124 -32.5l-41 -17l-43 193q233 77 406 77q119 -1 205 -29.5t137.5 -82.5t75.5 -127.5t24 -169.5v-434q0 -57 52 -62q19 -2 40 1t32 7l11 4v-170q-80 -32 -169 -32 q-74 0 -124.5 39.5t-70.5 105.5q-2 -1 -22.5 -19.5t-36 -30.5t-46.5 -32t-61 -32t-72 -21.5t-86 -9.5q-164 0 -264.5 84t-101.5 245zM330 344q0 -75 45.5 -117t128.5 -41q124 2 237 86v232q-106 17 -209 12q-94 -5 -147.5 -48.5t-54.5 -123.5zM463 1206l141 330h156 l-166 -330h-131z" />
<glyph unicode="&#xe2;" horiz-adv-x="1175" d="M76 317q-3 169 113 254.5t323 85.5q98 0 231 -20v63q0 89 -56 134.5t-165 44.5q-84 0 -167 -16.5t-124 -32.5l-41 -17l-43 193q233 77 406 77q119 -1 205 -29.5t137.5 -82.5t75.5 -127.5t24 -169.5v-434q0 -57 52 -62q19 -2 40 1t32 7l11 4v-170q-80 -32 -169 -32 q-74 0 -124.5 39.5t-70.5 105.5q-2 -1 -22.5 -19.5t-36 -30.5t-46.5 -32t-61 -32t-72 -21.5t-86 -9.5q-164 0 -264.5 84t-101.5 245zM264 1186l223 350h156l231 -350h-149l-156 244l-153 -244h-152zM330 344q0 -75 45.5 -117t128.5 -41q124 2 237 86v232q-106 17 -209 12 q-94 -5 -147.5 -48.5t-54.5 -123.5z" />
<glyph unicode="&#xe3;" horiz-adv-x="1175" d="M76 317q-3 169 113 254.5t323 85.5q98 0 231 -20v63q0 89 -56 134.5t-165 44.5q-84 0 -167 -16.5t-124 -32.5l-41 -17l-43 193q233 77 406 77q119 -1 205 -29.5t137.5 -82.5t75.5 -127.5t24 -169.5v-434q0 -57 52 -62q19 -2 40 1t32 7l11 4v-170q-80 -32 -169 -32 q-74 0 -124.5 39.5t-70.5 105.5q-2 -1 -22.5 -19.5t-36 -30.5t-46.5 -32t-61 -32t-72 -21.5t-86 -9.5q-164 0 -264.5 84t-101.5 245zM287 1372q65 78 155 82q36 1 95 -18.5t103.5 -36.5t91 -9.5t71.5 52.5l61 -103q-49 -79 -159 -79q-41 1 -99 21t-99 36.5t-86.5 10 t-76.5 -51.5zM330 344q0 -75 45.5 -117t128.5 -41q124 2 237 86v232q-106 17 -209 12q-94 -5 -147.5 -48.5t-54.5 -123.5z" />
<glyph unicode="&#xe4;" horiz-adv-x="1175" d="M76 317q-3 169 113 254.5t323 85.5q98 0 231 -20v63q0 89 -56 134.5t-165 44.5q-84 0 -167 -16.5t-124 -32.5l-41 -17l-43 193q233 77 406 77q119 -1 205 -29.5t137.5 -82.5t75.5 -127.5t24 -169.5v-434q0 -57 52 -62q19 -2 40 1t32 7l11 4v-170q-80 -32 -169 -32 q-74 0 -124.5 39.5t-70.5 105.5q-2 -1 -22.5 -19.5t-36 -30.5t-46.5 -32t-61 -32t-72 -21.5t-86 -9.5q-164 0 -264.5 84t-101.5 245zM276 1356q0 39 32 70.5t73 31.5t73.5 -31.5t32.5 -70.5q0 -40 -32.5 -73.5t-73.5 -33.5t-73 33.5t-32 73.5zM330 344q0 -75 45.5 -117 t128.5 -41q124 2 237 86v232q-106 17 -209 12q-94 -5 -147.5 -48.5t-54.5 -123.5zM666 1356q0 38 32 70t72 32q41 0 74 -32t33 -70q0 -40 -33 -73.5t-74 -33.5q-40 0 -72 33.5t-32 73.5z" />
<glyph unicode="&#xe5;" horiz-adv-x="1175" d="M76 317q-3 169 113 254.5t323 85.5q98 0 231 -20v63q0 89 -56 134.5t-165 44.5q-84 0 -167 -16.5t-124 -32.5l-41 -17l-43 193q233 77 406 77q119 -1 205 -29.5t137.5 -82.5t75.5 -127.5t24 -169.5v-434q0 -57 52 -62q19 -2 40 1t32 7l11 4v-170q-80 -32 -169 -32 q-74 0 -124.5 39.5t-70.5 105.5q-2 -1 -22.5 -19.5t-36 -30.5t-46.5 -32t-61 -32t-72 -21.5t-86 -9.5q-164 0 -264.5 84t-101.5 245zM330 344q0 -75 45.5 -117t128.5 -41q124 2 237 86v232q-106 17 -209 12q-94 -5 -147.5 -48.5t-54.5 -123.5zM356 1399q0 88 60.5 147.5 t152.5 59.5q88 0 150.5 -60.5t62.5 -146.5q0 -93 -62 -155t-151 -62q-91 0 -152 61t-61 156zM465 1399q0 -49 30 -79t76 -30q44 0 76.5 31.5t32.5 77.5q0 42 -33 73t-76 31q-45 0 -75.5 -30.5t-30.5 -73.5z" />
<glyph unicode="&#xe6;" horiz-adv-x="1822" d="M76 317q-3 169 113 254.5t323 85.5q98 0 231 -20v63q0 89 -56 134.5t-165 44.5q-84 0 -167 -16.5t-124 -32.5l-41 -17l-43 193q233 77 406 77q256 -3 354 -141q135 147 369 141q97 -2 182 -38.5t149 -102.5t97.5 -168.5t24.5 -226.5l-5 -33h-723q0 -143 65 -225t198 -82 q82 0 143 45.5t88 124.5l229 -82q-55 -148 -180 -227.5t-280 -79.5q-301 0 -430 200q-189 -200 -392 -200q-164 0 -264.5 84t-101.5 245zM330 344q0 -75 45.5 -117t128.5 -41q130 3 278 105q-36 99 -39 215q-107 16 -211 10q-94 -5 -147.5 -48.5t-54.5 -123.5zM1014 645h450 q3 120 -55 181.5t-156 58.5q-102 -2 -167 -66t-72 -174z" />
<glyph unicode="&#xe7;" horiz-adv-x="1138" d="M94 537q0 255 141.5 398t368.5 148q188 4 306.5 -82.5t150.5 -232.5l-236 -76q-19 82 -75 129t-142 47q-115 0 -187.5 -84.5t-72.5 -242.5q0 -68 13.5 -125.5t42.5 -105t80 -74.5t120 -27q174 0 225 170l236 -78q-51 -155 -168 -231.5t-281 -79.5l-10 -58 q96 -10 139.5 -59t34.5 -121q-10 -75 -67.5 -112.5t-149.5 -34.5q-41 2 -85 13.5t-68 22.5l-23 11l23 90q68 -31 127 -31q48 0 74.5 13t31.5 53q5 41 -37 61t-143 23l29 137q-100 16 -178 66.5t-125 124.5t-71 162t-24 186z" />
<glyph unicode="&#xe8;" horiz-adv-x="1169" d="M90 549q0 254 149 397t386 137q96 -2 180.5 -38.5t149 -102.5t98 -168.5t24.5 -226.5l-4 -33h-725q2 -144 66 -225.5t198 -81.5q82 0 143 45.5t89 124.5l229 -82q-55 -147 -181.5 -227t-281.5 -80q-261 0 -390.5 149.5t-129.5 411.5zM360 645h453q3 120 -55 181.5 t-156 58.5q-102 -2 -167.5 -66t-74.5 -174zM401 1536h168l142 -330h-144z" />
<glyph unicode="&#xe9;" horiz-adv-x="1169" d="M90 549q0 254 149 397t386 137q96 -2 180.5 -38.5t149 -102.5t98 -168.5t24.5 -226.5l-4 -33h-725q2 -144 66 -225.5t198 -81.5q82 0 143 45.5t89 124.5l229 -82q-55 -147 -181.5 -227t-281.5 -80q-261 0 -390.5 149.5t-129.5 411.5zM360 645h453q3 120 -55 181.5 t-156 58.5q-102 -2 -167.5 -66t-74.5 -174zM479 1206l142 330h155l-166 -330h-131z" />
<glyph unicode="&#xea;" horiz-adv-x="1169" d="M90 549q0 254 149 397t386 137q96 -2 180.5 -38.5t149 -102.5t98 -168.5t24.5 -226.5l-4 -33h-725q2 -144 66 -225.5t198 -81.5q82 0 143 45.5t89 124.5l229 -82q-55 -147 -181.5 -227t-281.5 -80q-261 0 -390.5 149.5t-129.5 411.5zM281 1186l223 350h155l232 -350h-150 l-155 244l-154 -244h-151zM360 645h453q3 120 -55 181.5t-156 58.5q-102 -2 -167.5 -66t-74.5 -174z" />
<glyph unicode="&#xeb;" horiz-adv-x="1169" d="M90 549q0 254 149 397t386 137q96 -2 180.5 -38.5t149 -102.5t98 -168.5t24.5 -226.5l-4 -33h-725q2 -144 66 -225.5t198 -81.5q82 0 143 45.5t89 124.5l229 -82q-55 -147 -181.5 -227t-281.5 -80q-261 0 -390.5 149.5t-129.5 411.5zM285 1356q0 39 31.5 70.5t72.5 31.5 t74 -32t33 -70q0 -40 -33 -73.5t-74 -33.5t-72.5 33.5t-31.5 73.5zM360 645h453q3 120 -55 181.5t-156 58.5q-102 -2 -167.5 -66t-74.5 -174zM674 1356q0 38 32 70t72 32q41 0 74 -32t33 -70q0 -40 -33 -73.5t-74 -33.5q-40 0 -72 33.5t-32 73.5z" />
<glyph unicode="&#xec;" horiz-adv-x="591" d="M55 862v211h406v-1073h-256v862h-150zM115 1536h168l141 -330h-143z" />
<glyph unicode="&#xed;" horiz-adv-x="591" d="M55 862v211h406v-1073h-256v862h-150zM197 1206l141 330h156l-166 -330h-131z" />
<glyph unicode="&#xee;" horiz-adv-x="591" d="M18 1186l197 350h156l200 -350h-151l-125 244l-125 -244h-152zM55 862v211h406v-1073h-256v862h-150z" />
<glyph unicode="&#xef;" horiz-adv-x="591" d="M18 1356q0 38 33 70t74 32q40 0 72 -32t32 -70q0 -40 -32 -73.5t-72 -33.5q-41 0 -74 33.5t-33 73.5zM55 862v211h406v-1073h-256v862h-150zM352 1356q0 39 32 70.5t73 31.5t73.5 -31.5t32.5 -70.5q0 -40 -32.5 -73.5t-73.5 -33.5t-73 33.5t-32 73.5z" />
<glyph unicode="&#xf0;" horiz-adv-x="1236" d="M92 535q0 255 137.5 396.5t354.5 149.5q90 0 151 -61q-16 38 -57 95.5t-78 90.5l-311 -100l-43 129l243 80q-126 105 -215 133l236 96q102 -43 221 -145l182 59l43 -131l-118 -39q275 -313 278 -735v-18q0 -114 -33.5 -212.5t-96.5 -173.5t-161.5 -118t-220.5 -43 q-132 0 -232 42.5t-160 118.5t-90 173t-30 213zM358 535q0 -68 12.5 -124.5t40 -104.5t77.5 -75.5t120 -27.5q83 0 141.5 48.5t84.5 121.5t26 162q0 168 -70 250.5t-176 82.5q-115 0 -185.5 -81t-70.5 -252z" />
<glyph unicode="&#xf1;" horiz-adv-x="1236" d="M131 0v1073h201l39 -190q50 99 147.5 148.5t218.5 51.5q182 1 277.5 -104.5t95.5 -278.5v-700h-254v618q0 252 -201 252q-71 0 -124 -27t-84.5 -73.5t-46.5 -104t-15 -124.5v-541h-254zM328 1372q65 78 155 82q36 1 95 -18.5t103.5 -36.5t91 -9.5t71.5 52.5l61 -103 q-49 -79 -160 -79q-41 1 -98.5 21t-98.5 36.5t-86.5 10t-76.5 -51.5z" />
<glyph unicode="&#xf2;" horiz-adv-x="1210" d="M92 535q0 134 40.5 240t111.5 172.5t165 101t205 34.5q102 0 191.5 -34.5t159.5 -101t110.5 -173t40.5 -239.5q0 -114 -33.5 -212.5t-96.5 -173.5t-161.5 -118t-220.5 -43q-132 0 -232 42.5t-160 118.5t-90 173t-30 213zM358 535q0 -68 12.5 -124.5t40 -104.5t77.5 -75.5 t120 -27.5q83 0 141.5 48.5t84.5 121.5t26 162q0 168 -70 250.5t-176 82.5q-115 0 -185.5 -81t-70.5 -252zM451 1536h165l142 -330h-142z" />
<glyph unicode="&#xf3;" horiz-adv-x="1210" d="M92 535q0 134 40.5 240t111.5 172.5t165 101t205 34.5q102 0 191.5 -34.5t159.5 -101t110.5 -173t40.5 -239.5q0 -114 -33.5 -212.5t-96.5 -173.5t-161.5 -118t-220.5 -43q-132 0 -232 42.5t-160 118.5t-90 173t-30 213zM358 535q0 -68 12.5 -124.5t40 -104.5t77.5 -75.5 t120 -27.5q83 0 141.5 48.5t84.5 121.5t26 162q0 168 -70 250.5t-176 82.5q-115 0 -185.5 -81t-70.5 -252zM502 1206l141 330h158l-166 -330h-133z" />
<glyph unicode="&#xf4;" horiz-adv-x="1210" d="M92 535q0 134 40.5 240t111.5 172.5t165 101t205 34.5q102 0 191.5 -34.5t159.5 -101t110.5 -173t40.5 -239.5q0 -114 -33.5 -212.5t-96.5 -173.5t-161.5 -118t-220.5 -43q-132 0 -232 42.5t-160 118.5t-90 173t-30 213zM299 1186l225 350h156l231 -350h-151l-156 244 l-153 -244h-152zM358 535q0 -68 12.5 -124.5t40 -104.5t77.5 -75.5t120 -27.5q83 0 141.5 48.5t84.5 121.5t26 162q0 168 -70 250.5t-176 82.5q-115 0 -185.5 -81t-70.5 -252z" />
<glyph unicode="&#xf5;" horiz-adv-x="1210" d="M92 535q0 134 40.5 240t111.5 172.5t165 101t205 34.5q102 0 191.5 -34.5t159.5 -101t110.5 -173t40.5 -239.5q0 -114 -33.5 -212.5t-96.5 -173.5t-161.5 -118t-220.5 -43q-132 0 -232 42.5t-160 118.5t-90 173t-30 213zM315 1372q62 78 156 82q36 1 94.5 -18.5 t103 -36.5t91 -9.5t71.5 52.5l62 -103q-49 -79 -160 -79q-41 1 -98.5 21t-98.5 36.5t-86.5 10t-76.5 -51.5zM358 535q0 -68 12.5 -124.5t40 -104.5t77.5 -75.5t120 -27.5q83 0 141.5 48.5t84.5 121.5t26 162q0 168 -70 250.5t-176 82.5q-115 0 -185.5 -81t-70.5 -252z" />
<glyph unicode="&#xf6;" horiz-adv-x="1210" d="M92 535q0 134 40.5 240t111.5 172.5t165 101t205 34.5q102 0 191.5 -34.5t159.5 -101t110.5 -173t40.5 -239.5q0 -114 -33.5 -212.5t-96.5 -173.5t-161.5 -118t-220.5 -43q-132 0 -232 42.5t-160 118.5t-90 173t-30 213zM305 1356q0 38 32.5 70t72.5 32q41 0 73.5 -31.5 t32.5 -70.5q0 -40 -32.5 -73.5t-73.5 -33.5q-40 0 -72.5 33.5t-32.5 73.5zM358 535q0 -68 12.5 -124.5t40 -104.5t77.5 -75.5t120 -27.5q83 0 141.5 48.5t84.5 121.5t26 162q0 168 -70 250.5t-176 82.5q-115 0 -185.5 -81t-70.5 -252zM694 1356q0 38 33 70t74 32 q40 0 72 -32t32 -70q0 -40 -32 -73.5t-72 -33.5q-41 0 -74 33.5t-33 73.5z" />
<glyph unicode="&#xf7;" horiz-adv-x="1220" d="M86 559v205h1053v-205h-1053zM483 244q0 57 42 100t100 43q61 0 104 -42.5t43 -100.5q0 -60 -43 -104t-104 -44q-58 0 -100 44t-42 104zM483 1090q0 57 42 100t100 43q61 0 104 -42.5t43 -100.5q0 -60 -43 -104t-104 -44q-58 0 -100 44t-42 104z" />
<glyph unicode="&#xf8;" horiz-adv-x="1210" d="M92 535q0 134 40.5 240t111.5 172.5t165 101t205 34.5q80 0 144 -20l30 78h119l-45 -119q118 -63 186 -186.5t68 -300.5q0 -114 -33.5 -212.5t-96.5 -173.5t-161.5 -118t-220.5 -43q-68 0 -127 12l-33 -88h-120l45 119q-139 61 -208 194t-69 310zM358 535q0 -197 99 -273 l223 594q-27 12 -66 12q-115 0 -185.5 -81t-70.5 -252zM555 209q21 -6 53 -6q83 0 141.5 48.5t84.5 121.5t26 162q0 171 -84 258z" />
<glyph unicode="&#xf9;" horiz-adv-x="1245" d="M117 420v653h254v-618q0 -252 215 -252q70 0 124.5 34t86 92t47.5 128t16 149v467h254v-1073h-203l-37 233q-51 -120 -150 -182.5t-220 -62.5q-193 0 -290 112.5t-97 319.5zM467 1536h168l141 -330h-143z" />
<glyph unicode="&#xfa;" horiz-adv-x="1245" d="M117 420v653h254v-618q0 -252 215 -252q70 0 124.5 34t86 92t47.5 128t16 149v467h254v-1073h-203l-37 233q-51 -120 -150 -182.5t-220 -62.5q-193 0 -290 112.5t-97 319.5zM526 1206l142 330h155l-166 -330h-131z" />
<glyph unicode="&#xfb;" horiz-adv-x="1245" d="M117 420v653h254v-618q0 -252 215 -252q70 0 124.5 34t86 92t47.5 128t16 149v467h254v-1073h-203l-37 233q-51 -120 -150 -182.5t-220 -62.5q-193 0 -290 112.5t-97 319.5zM317 1186l226 350h155l232 -350h-152l-153 244l-156 -244h-152z" />
<glyph unicode="&#xfc;" horiz-adv-x="1245" d="M117 420v653h254v-618q0 -252 215 -252q70 0 124.5 34t86 92t47.5 128t16 149v467h254v-1073h-203l-37 233q-51 -120 -150 -182.5t-220 -62.5q-193 0 -290 112.5t-97 319.5zM324 1356q0 38 32 70t72 32q41 0 74 -32t33 -70q0 -40 -33 -73.5t-74 -33.5q-40 0 -72 33.5 t-32 73.5zM713 1356q0 38 32 70t72 32q41 0 74 -32t33 -70q0 -40 -33 -73.5t-74 -33.5q-40 0 -72 33.5t-32 73.5z" />
<glyph unicode="&#xfd;" horiz-adv-x="1148" d="M18 -373l56 211q93 -23 152.5 -24.5t104.5 23.5t73.5 71t58.5 129l-404 1036h254l265 -758h16l242 758h262l-398 -1089q-41 -111 -83 -184t-96 -123t-125.5 -68.5t-162.5 -14.5t-215 33zM426 1206l141 330h156l-166 -330h-131z" />
<glyph unicode="&#xfe;" horiz-adv-x="1251" d="M131 -410v1942l254 33v-658q51 83 146.5 131t205.5 45q64 -2 122 -20t114 -58.5t96.5 -100.5t65 -152.5t24.5 -206.5q0 -163 -51.5 -288t-155.5 -197t-247 -72q-111 0 -194.5 45.5t-123.5 128.5v-572h-256zM373 539q0 -332 268 -332q124 0 191 88.5t67 247.5 q0 90 -21 156t-58.5 102t-82 52.5t-98.5 16.5q-115 0 -190.5 -87.5t-75.5 -243.5z" />
<glyph unicode="&#xff;" horiz-adv-x="1148" d="M18 -373l56 211q93 -23 152.5 -24.5t104.5 23.5t73.5 71t58.5 129l-404 1036h254l265 -758h16l242 758h262l-398 -1089q-41 -111 -83 -184t-96 -123t-125.5 -68.5t-162.5 -14.5t-215 33zM274 1356q0 38 33 70t74 32q40 0 73 -32t33 -70q0 -40 -33 -73.5t-73 -33.5 q-41 0 -74 33.5t-33 73.5zM666 1356q0 39 31.5 70.5t72.5 31.5t74 -32t33 -70q0 -40 -33 -73.5t-74 -33.5t-72.5 33.5t-31.5 73.5z" />
<glyph unicode="&#x152;" horiz-adv-x="2054" d="M98 723q0 180 48.5 321.5t134.5 229t199 131.5t245 41q113 -3 210.5 -53t166.5 -140v181h872l-30 -213h-588v-371h567v-219h-567v-412h622v-219h-876v188q-148 -195 -377 -200q-123 -4 -226.5 32t-177 103.5t-124 161.5t-75 204.5t-24.5 233.5zM352 719 q0 -82 11.5 -153.5t39 -137t69.5 -112t106.5 -74t146.5 -27.5t146.5 27.5t106 74t68.5 112t38.5 137t11.5 153.5q0 130 -29 229.5t-80 159.5t-117 89.5t-145 29.5q-166 0 -269.5 -126.5t-103.5 -381.5z" />
<glyph unicode="&#x153;" horiz-adv-x="1933" d="M92 535q0 134 40.5 240t111.5 172.5t165 101t205 34.5q120 0 222.5 -51t167.5 -147q64 98 164 149t221 49q96 -2 180.5 -38.5t148.5 -102.5t97 -168.5t24 -226.5l-2 -33h-719q-2 -9 -2 -53q6 -117 72.5 -185.5t185.5 -68.5q83 0 144.5 45.5t87.5 124.5l231 -82 q-57 -148 -182.5 -227.5t-280.5 -79.5q-245 0 -370 200q-62 -94 -164.5 -147t-235.5 -53q-132 0 -232 42.5t-160 118.5t-90 173t-30 213zM358 535q0 -68 12.5 -124.5t40 -104.5t77.5 -75.5t120 -27.5q83 0 141.5 48.5t84.5 121.5t26 162q0 168 -70 250.5t-176 82.5 q-115 0 -185.5 -81t-70.5 -252zM1124 645h451q3 120 -55 181.5t-156 58.5q-102 -2 -167.5 -66.5t-72.5 -173.5z" />
<glyph unicode="&#x178;" horiz-adv-x="1314" d="M53 1434h293l305 -658h8l318 658h293l-484 -899v-535h-256v535zM356 1716q0 38 32.5 70.5t72.5 32.5q41 0 73.5 -32t32.5 -71q0 -40 -32.5 -73t-73.5 -33q-40 0 -72.5 33t-32.5 73zM745 1716q0 38 32.5 70.5t72.5 32.5q41 0 73.5 -32t32.5 -71q0 -40 -32.5 -73t-73.5 -33 q-40 0 -72.5 33t-32.5 73z" />
<glyph unicode="&#x2c6;" horiz-adv-x="1230" d="M332 1186l225 350h156l231 -350h-151l-154 244l-156 -244h-151z" />
<glyph unicode="&#x2dc;" horiz-adv-x="1228" d="M342 1372q62 78 154 82q36 1 95.5 -18.5t104 -36.5t91 -9.5t71.5 52.5l62 -103q-24 -39 -67.5 -59t-94.5 -20q-40 1 -98 21t-99 36.5t-86.5 10t-75.5 -51.5z" />
<glyph unicode="&#x2000;" horiz-adv-x="983" />
<glyph unicode="&#x2001;" horiz-adv-x="1966" />
<glyph unicode="&#x2002;" horiz-adv-x="983" />
<glyph unicode="&#x2003;" horiz-adv-x="1966" />
<glyph unicode="&#x2004;" horiz-adv-x="655" />
<glyph unicode="&#x2005;" horiz-adv-x="491" />
<glyph unicode="&#x2006;" horiz-adv-x="327" />
<glyph unicode="&#x2007;" horiz-adv-x="327" />
<glyph unicode="&#x2008;" horiz-adv-x="245" />
<glyph unicode="&#x2009;" horiz-adv-x="393" />
<glyph unicode="&#x200a;" horiz-adv-x="109" />
<glyph unicode="&#x2010;" horiz-adv-x="544" d="M16 446v207h508v-207h-508z" />
<glyph unicode="&#x2011;" horiz-adv-x="544" d="M16 446v207h508v-207h-508z" />
<glyph unicode="&#x2012;" horiz-adv-x="544" d="M16 446v207h508v-207h-508z" />
<glyph unicode="&#x2013;" horiz-adv-x="1091" d="M16 446v207h1053v-207h-1053z" />
<glyph unicode="&#x2014;" horiz-adv-x="1705" d="M16 446v207h1663v-207h-1663z" />
<glyph unicode="&#x2018;" horiz-adv-x="468" d="M66 1296q8 95 56.5 158.5t118.5 90.5t160 28v-111q-71 -1 -118 -33.5t-47 -78.5q0 -8 5.5 -17t10.5 -15l6 -5q67 6 104.5 -33.5t32.5 -95.5q-5 -57 -43.5 -93t-101.5 -36q-100 0 -146 68.5t-38 172.5z" />
<glyph unicode="&#x2019;" horiz-adv-x="471" d="M76 1055v110q73 1 119.5 34t46.5 79q0 8 -6 17t-12 13l-5 5q-67 -4 -103.5 35.5t-33.5 95.5q5 57 43.5 93t101.5 36q100 0 146.5 -69t38.5 -173q-10 -139 -103 -206.5t-233 -69.5z" />
<glyph unicode="&#x201a;" horiz-adv-x="489" d="M72 -119q71 0 118.5 33t47.5 80q0 7 -6 16t-12 14l-7 5q-67 -4 -103.5 35t-31.5 96q3 56 41.5 91.5t101.5 35.5q101 0 148 -68.5t39 -173.5q-6 -71 -35 -124.5t-75.5 -85.5t-103 -47.5t-122.5 -16.5v110z" />
<glyph unicode="&#x201c;" horiz-adv-x="905" d="M78 1296q10 139 102.5 207t231.5 70v-111q-71 -1 -117.5 -33.5t-46.5 -78.5q0 -8 5.5 -17t10.5 -15l6 -5q67 6 104 -33.5t34 -95.5q-5 -57 -44 -93t-102 -36q-100 0 -146 68.5t-38 172.5zM506 1296q10 139 102.5 207t231.5 70v-111q-71 -1 -117.5 -33.5t-46.5 -78.5 q0 -8 5.5 -17t10.5 -15l6 -5q67 6 104 -33.5t34 -95.5q-5 -57 -44 -93t-102 -36q-100 0 -146 68.5t-38 172.5z" />
<glyph unicode="&#x201d;" horiz-adv-x="911" d="M78 1055v110q71 1 118.5 34t47.5 79q0 8 -6 17t-12 13l-7 5q-67 -4 -103.5 35.5t-31.5 95.5q3 57 41.5 93t101.5 36q100 0 147.5 -69t39.5 -173q-6 -72 -35 -126t-75.5 -85.5t-103 -47.5t-122.5 -17zM506 1055v110q71 1 118.5 34t47.5 79q0 8 -6 17t-12 13l-7 5 q-67 -4 -103.5 35.5t-31.5 95.5q3 57 41.5 93t101.5 36q100 0 147.5 -69t39.5 -173q-6 -72 -35 -126t-75.5 -85.5t-103 -47.5t-122.5 -17z" />
<glyph unicode="&#x201e;" horiz-adv-x="897" d="M72 -119q71 0 118.5 33t47.5 80q0 7 -6 16t-12 14l-7 5q-67 -4 -103.5 35t-31.5 96q3 56 41.5 91.5t101.5 35.5q101 0 148 -68.5t39 -173.5q-6 -71 -35 -124.5t-75.5 -85.5t-103 -47.5t-122.5 -16.5v110zM489 -119q71 0 118.5 33t47.5 80q0 7 -6 16t-12 14l-6 5 q-67 -4 -103.5 35t-31.5 96q3 56 41.5 91.5t101.5 35.5q101 0 147.5 -68.5t38.5 -173.5q-6 -71 -35 -124.5t-75.5 -85.5t-103 -47.5t-122.5 -16.5v110z" />
<glyph unicode="&#x2022;" horiz-adv-x="884" d="M199 664q0 109 68 176t177 67t177.5 -67.5t68.5 -175.5q0 -109 -68.5 -177.5t-177.5 -68.5t-177 68.5t-68 177.5z" />
<glyph unicode="&#x2026;" horiz-adv-x="1386" d="M96 147q0 57 42 99.5t102 42.5t103.5 -42.5t43.5 -99.5q0 -60 -43.5 -103.5t-103.5 -43.5t-102 43.5t-42 103.5zM516 147q0 57 41.5 99.5t99.5 42.5q61 0 104.5 -42.5t43.5 -99.5q0 -60 -43.5 -103.5t-104.5 -43.5q-58 0 -99.5 43.5t-41.5 103.5zM950 147q0 57 42 99.5 t102 42.5t103.5 -42.5t43.5 -99.5q0 -60 -43.5 -103.5t-103.5 -43.5t-102 43.5t-42 103.5z" />
<glyph unicode="&#x202f;" horiz-adv-x="393" />
<glyph unicode="&#x2039;" horiz-adv-x="604" d="M78 543l274 428h197l-273 -428l273 -428h-197z" />
<glyph unicode="&#x203a;" horiz-adv-x="544" d="M43 115l272 428l-272 428h197l274 -428l-274 -428h-197z" />
<glyph unicode="&#x205f;" horiz-adv-x="491" />
<glyph unicode="&#x20ac;" horiz-adv-x="1349" d="M41 512l18 129h86q-4 46 -4 74q0 43 2 53h-102l18 123h95q43 271 205.5 411t398.5 140q87 0 162 -20t125.5 -52.5t91 -72t64 -78.5t39 -71.5t20.5 -52.5l6 -20l-197 -94q0 5 -1.5 14.5t-9.5 36t-19.5 50.5t-35.5 53.5t-54.5 51t-79 36t-107.5 14.5q-144 0 -239 -85.5 t-126 -260.5h527l-19 -123h-522v-53q0 -60 2 -74h502l-19 -129h-465q31 -155 119.5 -245.5t239.5 -90.5q55 0 102 15t78 38.5t56 52t39 57t23 52t12 38.5l3 15l201 -94q-2 -8 -6 -21t-22 -50.5t-41.5 -71.5t-66 -76t-93.5 -72t-126.5 -50.5t-162.5 -20.5q-246 0 -399 142.5 t-199 381.5h-119z" />
<glyph unicode="&#x2122;" horiz-adv-x="1234" d="M43 1319v117h438l-14 -117h-137v-445h-137v445h-150zM532 872v564l185 2l145 -391l142 391l180 -2v-564h-131v377l-142 -377h-106l-137 377v-377h-136z" />
<glyph unicode="&#x25fc;" horiz-adv-x="1075" d="M0 0v1075h1075v-1075h-1075z" />
</font>
</defs>
</svg>
